<svg xmlns="http://www.w3.org/2000/svg" width="28" height="28" viewBox="0 0 28 28">
  <g id="insta" transform="translate(-235.461)">
    <rect id="사각형_100" data-name="사각형 100" width="28" height="28" transform="translate(235.461)" fill="#fff"/>
    <g id="그룹_999" data-name="그룹 999" transform="translate(237.189 1.727)">
      <g id="그룹_997" data-name="그룹 997" transform="translate(4.422 4.423)">
        <path id="패스_2748" data-name="패스 2748" d="M1.175,12.788A4.041,4.041,0,0,0,4.73,16.352a36.671,36.671,0,0,0,4.041.269,36.671,36.671,0,0,0,4.041-.269,4.04,4.04,0,0,0,3.555-3.564,37.981,37.981,0,0,0,.254-4.017,37.979,37.979,0,0,0-.254-4.017A4.04,4.04,0,0,0,12.812,1.19,36.673,36.673,0,0,0,8.771.921,36.673,36.673,0,0,0,4.73,1.19,4.041,4.041,0,0,0,1.175,4.754,37.99,37.99,0,0,0,.921,8.771,37.992,37.992,0,0,0,1.175,12.788Z" transform="translate(-0.921 -0.921)" fill="#1d1d1d" stroke="#1d1d1d" stroke-width="1"/>
      </g>
      <g id="그룹_998" data-name="그룹 998" transform="translate(8.474 6.959)">
        <path id="패스_2746" data-name="패스 2746" d="M16.5,20.288a3.788,3.788,0,1,1,3.788,3.788A3.788,3.788,0,0,1,16.5,20.288Zm3.788-2.273a2.273,2.273,0,1,0,2.273,2.273A2.273,2.273,0,0,0,20.288,18.015Z" transform="translate(-16.5 -14.985)" fill="#fff" fill-rule="evenodd"/>
        <path id="패스_2747" data-name="패스 2747" d="M31.258,13.5a.758.758,0,0,0,0,1.515h.505a.758.758,0,1,0,0-1.515Z" transform="translate(-23.429 -13.5)" fill="#fff"/>
      </g>
    </g>
  </g>
</svg>
