<svg xmlns="http://www.w3.org/2000/svg" width="28" height="28" viewBox="0 0 28 28">
  <g id="lang" transform="translate(-235.196)">
    <rect id="사각형_100" data-name="사각형 100" width="28" height="28" transform="translate(235.196)" fill="#fff"/>
    <g id="_Icon-_-Bold-_-Action-_-Online" data-name="*Icon-/-Bold-/-Action-/-Online" transform="translate(241.25 6.006)">
      <path id="Icon-_-Bold-_-Action-_-Online" data-name="Icon-/-Bold-/-Action-/-Online" d="M10.06,2a8.057,8.057,0,0,1,.131,16.113h-.136A8.057,8.057,0,0,1,9.924,2ZM6.607,10.757a9.538,9.538,0,0,0,1.2,4.272,3.721,3.721,0,0,0,1.545,1.526l0-5.8Zm4.15,0v5.8c1.321-.591,2.58-2.785,2.752-5.8Zm-7.32,0A6.606,6.606,0,0,0,5.35,14.762a6.7,6.7,0,0,0,1.262.992,10.872,10.872,0,0,1-1.408-5Zm11.473,0a10.878,10.878,0,0,1-1.405,4.989,6.665,6.665,0,0,0,3.171-4.988ZM13.5,4.36a10.874,10.874,0,0,1,1.408,5h1.766a6.606,6.606,0,0,0-1.912-4.006,6.71,6.71,0,0,0-1.158-.928Zm-2.744-.8,0,5.8h2.749a9.623,9.623,0,0,0-1.153-4.189L12.3,5.086A3.721,3.721,0,0,0,10.76,3.56Zm-1.4,0c-1.321.591-2.58,2.785-2.752,5.8h2.75ZM6.61,4.366,6.554,4.4A6.666,6.666,0,0,0,3.438,9.355H5.2a10.953,10.953,0,0,1,1.354-4.9Z" transform="translate(-2 -2)" fill="#1d1d1d"/>
    </g>
  </g>
</svg>
