<svg id="img" xmlns="http://www.w3.org/2000/svg" xmlns:xlink="http://www.w3.org/1999/xlink" width="153.191" height="102.056" viewBox="0 0 153.191 102.056">
  <defs>
    <clipPath id="clip-path">
      <rect id="사각형_636" data-name="사각형 636" width="153.191" height="102.056" fill="none"/>
    </clipPath>
    <clipPath id="clip-path-3">
      <rect id="사각형_633" data-name="사각형 633" width="116.873" height="17.191" fill="none"/>
    </clipPath>
    <clipPath id="clip-path-4">
      <path id="패스_1916" data-name="패스 1916" d="M193.264,187.1c0,4.747-26.163,8.6-58.436,8.6s-58.436-3.848-58.436-8.6,26.163-8.6,58.436-8.6,58.436,3.849,58.436,8.6" transform="translate(-76.391 -178.504)" fill="none"/>
    </clipPath>
    <clipPath id="clip-path-5">
      <rect id="사각형_634" data-name="사각형 634" width="94.3" height="87.024" fill="none"/>
    </clipPath>
    <clipPath id="clip-path-6">
      <path id="패스_1919" data-name="패스 1919" d="M13.5,88.616,72.36,62.947c1.78-.776,3.086-3.251,2.918-5.527L72.35,17.869c-.168-2.276-1.748-3.492-3.528-2.716L9.959,40.821c-1.78.776-3.086,3.251-2.918,5.527L9.968,85.9c.169,2.276,1.748,3.492,3.528,2.716" transform="translate(-7.026 -14.918)" fill="none"/>
    </clipPath>
    <linearGradient id="linear-gradient" x1="0.028" y1="0.936" x2="0.034" y2="0.936" gradientUnits="objectBoundingBox">
      <stop offset="0" stop-color="#7bdaff"/>
      <stop offset="1" stop-color="#59bdef"/>
    </linearGradient>
    <clipPath id="clip-path-7">
      <path id="패스_1921" data-name="패스 1921" d="M10.179,55.135,39.37,42.406l3.441,46.5-29.1,14.029a2.532,2.532,0,0,1-3.747-2.325L7,60.481a5.754,5.754,0,0,1,3.18-5.346" transform="translate(-6.987 -42.406)" fill="none"/>
    </clipPath>
    <linearGradient id="linear-gradient-2" x1="0.239" y1="1.022" x2="0.245" y2="1.022" gradientUnits="objectBoundingBox">
      <stop offset="0" stop-color="#59bdef"/>
      <stop offset="0.768" stop-color="#59bdef"/>
      <stop offset="0.845" stop-color="#54b8eb"/>
      <stop offset="0.932" stop-color="#48aae1"/>
      <stop offset="1" stop-color="#3a9bd5"/>
    </linearGradient>
    <clipPath id="clip-path-8">
      <path id="패스_1923" data-name="패스 1923" d="M104.293,15.314,75.1,28.043l3.419,46.2,29.309-11.138a5.752,5.752,0,0,0,3.18-5.346L108.04,17.639a2.532,2.532,0,0,0-3.747-2.325" transform="translate(-75.101 -15.026)" fill="none"/>
    </clipPath>
    <linearGradient id="linear-gradient-3" x1="-0.159" y1="1.146" x2="-0.154" y2="1.146" xlink:href="#linear-gradient-2"/>
    <clipPath id="clip-path-9">
      <path id="패스_1925" data-name="패스 1925" d="M79.052,94.782a5.435,5.435,0,0,1-2.5,2.43L18.172,122.671a2.621,2.621,0,0,1-2.69-.169L45.15,80.038Z" transform="translate(-15.482 -80.038)" fill="none"/>
    </clipPath>
    <linearGradient id="linear-gradient-4" x1="-0.061" y1="0.939" x2="-0.054" y2="0.939" gradientUnits="objectBoundingBox">
      <stop offset="0" stop-color="#3a9bd5"/>
      <stop offset="0.768" stop-color="#3a9bd5"/>
      <stop offset="0.839" stop-color="#3796d1"/>
      <stop offset="0.918" stop-color="#3089c8"/>
      <stop offset="1" stop-color="#2573ba"/>
    </linearGradient>
    <clipPath id="clip-path-10">
      <path id="패스_1927" data-name="패스 1927" d="M8.447,43.2a5.438,5.438,0,0,1,2.5-2.431L69.328,15.315a2.621,2.621,0,0,1,2.689.169L42.349,57.949Z" transform="translate(-8.447 -15.029)" fill="none"/>
    </clipPath>
    <linearGradient id="linear-gradient-5" x1="0.118" y1="1.062" x2="0.123" y2="1.062" xlink:href="#linear-gradient"/>
    <clipPath id="clip-path-11">
      <path id="패스_1930" data-name="패스 1930" d="M52.137,99.5l61.239-32.413c1.852-.98,3.056-3.749,2.689-6.184l-6.372-42.315c-.367-2.435-2.165-3.615-4.017-2.635L44.437,48.37c-1.852.98-3.056,3.749-2.689,6.184L48.12,96.87c.367,2.435,2.166,3.615,4.017,2.635" transform="translate(-41.683 -15.612)" fill="none"/>
    </clipPath>
    <linearGradient id="linear-gradient-6" x1="-0.077" y1="0.83" x2="-0.072" y2="0.83" xlink:href="#linear-gradient"/>
    <clipPath id="clip-path-12">
      <path id="패스_1932" data-name="패스 1932" d="M44.65,66.5,75.02,50.426l7.491,49.744L52.35,117.634a2.731,2.731,0,0,1-4.221-2.2L41.665,72.511A6.207,6.207,0,0,1,44.65,66.5" transform="translate(-41.612 -50.426)" fill="none"/>
    </clipPath>
    <linearGradient id="linear-gradient-7" x1="0.032" y1="0.911" x2="0.038" y2="0.911" xlink:href="#linear-gradient-2"/>
    <clipPath id="clip-path-13">
      <path id="패스_1934" data-name="패스 1934" d="M142.253,16.15l-30.37,16.074,7.443,49.432,30.626-14.371a6.208,6.208,0,0,0,2.986-6.011l-6.464-42.928a2.731,2.731,0,0,0-4.221-2.2" transform="translate(-111.883 -15.727)" fill="none"/>
    </clipPath>
    <linearGradient id="linear-gradient-8" x1="-0.342" y1="1.053" x2="-0.336" y2="1.053" xlink:href="#linear-gradient-2"/>
    <clipPath id="clip-path-14">
      <path id="패스_1936" data-name="패스 1936" d="M124.219,103.788a5.869,5.869,0,0,1-2.489,2.819L60.991,138.755a2.828,2.828,0,0,1-2.908.038l28.46-48.1Z" transform="translate(-58.083 -90.688)" fill="none"/>
    </clipPath>
    <linearGradient id="linear-gradient-9" x1="-0.261" y1="0.805" x2="-0.255" y2="0.805" xlink:href="#linear-gradient-4"/>
    <clipPath id="clip-path-15">
      <path id="패스_1938" data-name="패스 1938" d="M42.768,51.119A5.866,5.866,0,0,1,45.257,48.3L106,16.152a2.828,2.828,0,0,1,2.908-.038l-28.46,48.1Z" transform="translate(-42.768 -15.732)" fill="none"/>
    </clipPath>
    <linearGradient id="linear-gradient-10" x1="-0.029" y1="1" x2="-0.024" y2="1" xlink:href="#linear-gradient"/>
    <clipPath id="clip-path-16">
      <path id="패스_1941" data-name="패스 1941" d="M144.546,5.421,80.582,42.364c-1.934,1.117-3.108,4.114-2.621,6.694l8.455,44.829c.486,2.58,2.449,3.766,4.384,2.649l63.964-36.944c1.935-1.117,3.107-4.114,2.621-6.694L148.929,8.069C148.567,6.149,147.387,5,146.009,5a2.915,2.915,0,0,0-1.462.421" transform="translate(-77.851 -5)" fill="none"/>
    </clipPath>
    <linearGradient id="linear-gradient-11" x1="-0.187" y1="0.802" x2="-0.182" y2="0.802" xlink:href="#linear-gradient"/>
    <clipPath id="clip-path-17">
      <path id="패스_1943" data-name="패스 1943" d="M80.8,63.059a6.615,6.615,0,0,0-2.944,6.521l8.578,45.477c.453,2.4,2.5,3.375,4.584,2.174l31.443-19.794-9.94-52.7Z" transform="translate(-77.766 -44.738)" fill="none"/>
    </clipPath>
    <clipPath id="clip-path-18">
      <path id="패스_1945" data-name="패스 1945" d="M182.587,5.634,150.866,23.955l9.877,52.368L192.8,59.807a6.617,6.617,0,0,0,2.944-6.521L187.17,7.808a2.938,2.938,0,0,0-2.816-2.688,3.546,3.546,0,0,0-1.767.514" transform="translate(-150.866 -5.12)" fill="none"/>
    </clipPath>
    <clipPath id="clip-path-19">
      <path id="패스_1947" data-name="패스 1947" d="M99.124,139.76a3.016,3.016,0,0,0,3.1-.155l63.441-36.641a6.255,6.255,0,0,0,2.541-3.1L127.548,87.391Z" transform="translate(-99.124 -87.391)" fill="none"/>
    </clipPath>
    <clipPath id="clip-path-20">
      <path id="패스_1949" data-name="패스 1949" d="M144.783,5.638,81.342,42.279a6.25,6.25,0,0,0-2.541,3.1l40.654,12.472L147.879,5.483a2.622,2.622,0,0,0-1.337-.357,3.528,3.528,0,0,0-1.759.512" transform="translate(-78.801 -5.126)" fill="none"/>
    </clipPath>
  </defs>
  <g id="그룹_555" data-name="그룹 555" clip-path="url(#clip-path)">
    <g id="그룹_544" data-name="그룹 544">
      <g id="그룹_543" data-name="그룹 543" clip-path="url(#clip-path)">
        <g id="그룹_519" data-name="그룹 519" transform="translate(36.318 84.865)" opacity="0.5" style="mix-blend-mode: multiply;isolation: isolate">
          <g id="그룹_518" data-name="그룹 518">
            <g id="그룹_517" data-name="그룹 517" clip-path="url(#clip-path-3)">
              <g id="그룹_516" data-name="그룹 516" transform="translate(0 0)">
                <g id="그룹_515" data-name="그룹 515" clip-path="url(#clip-path-4)">
                  <rect id="사각형_632" data-name="사각형 632" width="116.873" height="17.19" fill="#fff"/>
                  <path id="패스_1661" data-name="패스 1661" d="M193.6,189.287c.022,3.879-23.385,7.156-52.282,7.319s-52.339-2.85-52.36-6.729,23.385-7.157,52.282-7.32,52.339,2.85,52.36,6.729" transform="translate(-82.986 -180.627)" fill="#fff"/>
                  <path id="패스_1662" data-name="패스 1662" d="M193.25,189.322c.022,3.864-23.293,7.128-52.076,7.291s-52.134-2.838-52.156-6.7,23.294-7.129,52.077-7.291,52.133,2.838,52.155,6.7" transform="translate(-83.015 -180.659)" fill="#fff"/>
                  <path id="패스_1663" data-name="패스 1663" d="M192.893,189.354c.022,3.849-23.2,7.1-51.871,7.262s-51.928-2.827-51.95-6.676,23.2-7.1,51.871-7.262,51.928,2.827,51.95,6.676" transform="translate(-83.043 -180.69)" fill="#fff"/>
                  <path id="패스_1664" data-name="패스 1664" d="M192.539,189.389c.022,3.834-23.11,7.072-51.666,7.233s-51.723-2.816-51.744-6.65,23.11-7.072,51.666-7.233,51.723,2.816,51.745,6.65" transform="translate(-83.073 -180.722)" fill="#fff"/>
                  <path id="패스_1665" data-name="패스 1665" d="M192.183,189.422c.021,3.819-23.019,7.044-51.461,7.2S89.2,193.821,89.183,190s23.018-7.044,51.461-7.2,51.518,2.805,51.539,6.624" transform="translate(-83.101 -180.753)" fill="#fff"/>
                  <path id="패스_1666" data-name="패스 1666" d="M191.827,189.455c.021,3.8-22.927,7.016-51.256,7.176s-51.313-2.794-51.334-6.6,22.926-7.016,51.256-7.176,51.313,2.794,51.334,6.6" transform="translate(-83.13 -180.785)" fill="#feffff"/>
                  <path id="패스_1667" data-name="패스 1667" d="M191.472,189.489c.021,3.788-22.835,6.988-51.051,7.147s-51.107-2.783-51.129-6.571,22.835-6.988,51.051-7.147,51.107,2.783,51.129,6.571" transform="translate(-83.159 -180.816)" fill="#feffff"/>
                  <path id="패스_1668" data-name="패스 1668" d="M191.115,189.522c.021,3.773-22.743,6.96-50.846,7.119s-50.9-2.772-50.923-6.545,22.743-6.96,50.846-7.118,50.9,2.771,50.923,6.544" transform="translate(-83.187 -180.848)" fill="#fefeff"/>
                  <path id="패스_1669" data-name="패스 1669" d="M190.76,189.555c.021,3.758-22.652,6.932-50.641,7.09s-50.7-2.76-50.718-6.518,22.652-6.932,50.641-7.09,50.7,2.76,50.718,6.518" transform="translate(-83.216 -180.879)" fill="#fefeff"/>
                  <path id="패스_1670" data-name="패스 1670" d="M190.4,189.59c.021,3.743-22.56,6.9-50.436,7.061s-50.491-2.749-50.512-6.491,22.56-6.9,50.436-7.061,50.492,2.749,50.512,6.491" transform="translate(-83.245 -180.911)" fill="#fefeff"/>
                  <path id="패스_1671" data-name="패스 1671" d="M190.049,189.623c.021,3.727-22.468,6.876-50.231,7.032s-50.286-2.738-50.307-6.465,22.468-6.876,50.231-7.032,50.286,2.738,50.307,6.465" transform="translate(-83.273 -180.942)" fill="#fdfeff"/>
                  <path id="패스_1672" data-name="패스 1672" d="M189.694,189.656c.021,3.712-22.376,6.848-50.026,7s-50.081-2.727-50.1-6.439,22.376-6.848,50.026-7,50.081,2.727,50.1,6.439" transform="translate(-83.302 -180.973)" fill="#fdfefe"/>
                  <path id="패스_1673" data-name="패스 1673" d="M189.337,189.69c.021,3.7-22.285,6.819-49.821,6.975s-49.875-2.716-49.9-6.413,22.285-6.82,49.821-6.975,49.876,2.716,49.9,6.413" transform="translate(-83.331 -181.005)" fill="#fdfefe"/>
                  <path id="패스_1674" data-name="패스 1674" d="M188.982,189.723c.021,3.682-22.193,6.791-49.616,6.946s-49.67-2.7-49.691-6.386,22.193-6.791,49.616-6.946,49.67,2.7,49.691,6.386" transform="translate(-83.359 -181.036)" fill="#fdfefe"/>
                  <path id="패스_1675" data-name="패스 1675" d="M188.626,189.756c.021,3.666-22.1,6.763-49.411,6.917s-49.465-2.693-49.486-6.36,22.1-6.763,49.411-6.917,49.465,2.693,49.486,6.36" transform="translate(-83.388 -181.067)" fill="#fcfdfe"/>
                  <path id="패스_1676" data-name="패스 1676" d="M188.271,189.791c.02,3.651-22.01,6.735-49.206,6.889S89.8,194,89.784,190.346s22.01-6.735,49.206-6.889,49.26,2.682,49.281,6.333" transform="translate(-83.417 -181.099)" fill="#fcfdfe"/>
                  <path id="패스_1677" data-name="패스 1677" d="M187.915,189.823c.02,3.636-21.918,6.707-49,6.86s-49.054-2.67-49.075-6.307,21.918-6.707,49-6.86,49.055,2.671,49.075,6.307" transform="translate(-83.445 -181.13)" fill="#fcfdfe"/>
                  <path id="패스_1678" data-name="패스 1678" d="M187.559,189.857c.02,3.621-21.826,6.679-48.8,6.831s-48.849-2.66-48.87-6.28,21.826-6.679,48.8-6.831,48.849,2.66,48.87,6.28" transform="translate(-83.474 -181.162)" fill="#fbfdfe"/>
                  <path id="패스_1679" data-name="패스 1679" d="M187.2,189.891c.02,3.606-21.735,6.651-48.591,6.8s-48.645-2.649-48.664-6.254,21.734-6.651,48.591-6.8,48.644,2.649,48.664,6.254" transform="translate(-83.503 -181.193)" fill="#fbfdfe"/>
                  <path id="패스_1680" data-name="패스 1680" d="M186.849,189.924c.02,3.59-21.643,6.623-48.386,6.774S90.024,194.061,90,190.47s21.643-6.623,48.385-6.774,48.439,2.637,48.46,6.228" transform="translate(-83.532 -181.225)" fill="#fbfcfe"/>
                  <path id="패스_1681" data-name="패스 1681" d="M186.493,189.957c.02,3.575-21.551,6.6-48.181,6.745s-48.234-2.626-48.254-6.2,21.551-6.6,48.181-6.745,48.233,2.626,48.254,6.2" transform="translate(-83.56 -181.256)" fill="#fafcfe"/>
                  <path id="패스_1682" data-name="패스 1682" d="M186.137,189.991c.02,3.56-21.459,6.567-47.976,6.717s-48.029-2.615-48.049-6.175,21.459-6.567,47.976-6.716,48.028,2.615,48.048,6.175" transform="translate(-83.589 -181.288)" fill="#fafcfd"/>
                  <path id="패스_1683" data-name="패스 1683" d="M185.781,190.024c.02,3.545-21.367,6.539-47.771,6.688s-47.823-2.6-47.843-6.148,21.368-6.539,47.771-6.688,47.823,2.6,47.843,6.149" transform="translate(-83.618 -181.319)" fill="#fafcfd"/>
                  <path id="패스_1684" data-name="패스 1684" d="M185.426,190.059c.02,3.53-21.276,6.511-47.566,6.659s-47.618-2.593-47.638-6.122,21.276-6.511,47.566-6.659,47.618,2.592,47.638,6.122" transform="translate(-83.646 -181.351)" fill="#f9fcfd"/>
                  <path id="패스_1685" data-name="패스 1685" d="M185.069,190.092c.02,3.514-21.184,6.483-47.361,6.631s-47.413-2.582-47.433-6.1,21.184-6.483,47.361-6.631,47.413,2.582,47.433,6.1" transform="translate(-83.675 -181.382)" fill="#f9fbfd"/>
                  <path id="패스_1686" data-name="패스 1686" d="M184.715,190.125c.02,3.5-21.093,6.455-47.155,6.6s-47.208-2.57-47.227-6.069,21.092-6.455,47.155-6.6,47.207,2.57,47.227,6.069" transform="translate(-83.704 -181.413)" fill="#f8fbfd"/>
                  <path id="패스_1687" data-name="패스 1687" d="M184.359,190.159c.019,3.484-21,6.427-46.951,6.573s-47-2.559-47.022-6.043,21-6.427,46.951-6.573,47,2.559,47.022,6.043" transform="translate(-83.733 -181.445)" fill="#f8fbfd"/>
                  <path id="패스_1688" data-name="패스 1688" d="M184,190.192c.019,3.469-20.909,6.4-46.746,6.544s-46.8-2.548-46.817-6.017,20.909-6.4,46.746-6.544,46.8,2.548,46.817,6.016" transform="translate(-83.761 -181.476)" fill="#f8fafd"/>
                  <path id="패스_1689" data-name="패스 1689" d="M183.648,190.225c.02,3.453-20.817,6.371-46.541,6.516S90.515,194.2,90.5,190.751s20.817-6.37,46.541-6.516,46.592,2.537,46.611,5.99" transform="translate(-83.79 -181.507)" fill="#f7fafc"/>
                  <path id="패스_1690" data-name="패스 1690" d="M183.292,190.26c.019,3.438-20.726,6.343-46.335,6.487s-46.387-2.526-46.406-5.964,20.726-6.342,46.336-6.487,46.386,2.525,46.406,5.964" transform="translate(-83.818 -181.539)" fill="#f7fafc"/>
                  <path id="패스_1691" data-name="패스 1691" d="M182.936,190.292c.02,3.423-20.634,6.315-46.13,6.458s-46.181-2.514-46.2-5.938,20.634-6.314,46.131-6.458,46.181,2.515,46.2,5.938" transform="translate(-83.847 -181.57)" fill="#f6fafc"/>
                  <path id="패스_1692" data-name="패스 1692" d="M182.581,190.326c.019,3.408-20.542,6.287-45.926,6.43s-45.976-2.5-45.995-5.911,20.542-6.287,45.926-6.43,45.976,2.5,45.995,5.911" transform="translate(-83.877 -181.602)" fill="#f6f9fc"/>
                  <path id="패스_1693" data-name="패스 1693" d="M182.225,190.36c.019,3.393-20.45,6.258-45.721,6.4s-45.771-2.492-45.79-5.884,20.45-6.259,45.721-6.4,45.771,2.492,45.79,5.885" transform="translate(-83.905 -181.633)" fill="#f5f9fc"/>
                  <path id="패스_1694" data-name="패스 1694" d="M181.87,190.393c.019,3.377-20.359,6.23-45.516,6.372s-45.565-2.481-45.584-5.858,20.359-6.23,45.515-6.372,45.566,2.481,45.585,5.858" transform="translate(-83.934 -181.665)" fill="#f5f9fc"/>
                  <path id="패스_1695" data-name="패스 1695" d="M181.514,190.426c.019,3.362-20.267,6.2-45.31,6.344s-45.36-2.47-45.379-5.832,20.267-6.2,45.31-6.344,45.36,2.47,45.379,5.832" transform="translate(-83.962 -181.696)" fill="#f4f9fc"/>
                  <path id="패스_1696" data-name="패스 1696" d="M181.158,190.46c.019,3.347-20.176,6.174-45.105,6.315S90.9,194.317,90.879,190.97s20.176-6.174,45.105-6.315,45.155,2.458,45.174,5.805" transform="translate(-83.991 -181.728)" fill="#f4f8fb"/>
                  <path id="패스_1697" data-name="패스 1697" d="M180.8,190.493c.019,3.332-20.084,6.146-44.9,6.286S90.952,194.332,90.933,191s20.084-6.146,44.9-6.286,44.95,2.447,44.969,5.779" transform="translate(-84.019 -181.759)" fill="#f3f8fb"/>
                  <path id="패스_1698" data-name="패스 1698" d="M180.447,190.527c.019,3.317-19.992,6.118-44.7,6.258s-44.744-2.437-44.763-5.753,19.992-6.118,44.7-6.257,44.745,2.436,44.763,5.753" transform="translate(-84.048 -181.79)" fill="#f3f8fb"/>
                  <path id="패스_1699" data-name="패스 1699" d="M180.092,190.561c.019,3.3-19.9,6.09-44.49,6.229s-44.539-2.425-44.558-5.726,19.9-6.09,44.49-6.229,44.539,2.425,44.558,5.726" transform="translate(-84.078 -181.822)" fill="#f2f7fb"/>
                  <path id="패스_1700" data-name="패스 1700" d="M179.736,190.594c.019,3.286-19.809,6.062-44.285,6.2s-44.334-2.414-44.352-5.7,19.809-6.062,44.285-6.2,44.334,2.414,44.352,5.7" transform="translate(-84.106 -181.853)" fill="#f2f7fb"/>
                  <path id="패스_1701" data-name="패스 1701" d="M179.38,190.628c.019,3.271-19.717,6.034-44.08,6.171s-44.128-2.4-44.147-5.673,19.717-6.034,44.08-6.171,44.128,2.4,44.147,5.674" transform="translate(-84.135 -181.885)" fill="#f1f7fb"/>
                  <path id="패스_1702" data-name="패스 1702" d="M179.025,190.661c.018,3.256-19.626,6.006-43.876,6.143s-43.923-2.391-43.941-5.647,19.625-6.006,43.875-6.142,43.924,2.391,43.942,5.647" transform="translate(-84.164 -181.916)" fill="#f1f6fa"/>
                  <path id="패스_1703" data-name="패스 1703" d="M178.669,190.694c.019,3.24-19.533,5.978-43.67,6.114s-43.718-2.38-43.737-5.621,19.534-5.978,43.671-6.114,43.718,2.38,43.736,5.621" transform="translate(-84.192 -181.947)" fill="#f0f6fa"/>
                  <path id="패스_1704" data-name="패스 1704" d="M178.314,190.729c.018,3.225-19.442,5.949-43.465,6.085s-43.513-2.369-43.531-5.594,19.442-5.949,43.465-6.085,43.513,2.369,43.531,5.594" transform="translate(-84.221 -181.979)" fill="#f0f6fa"/>
                  <path id="패스_1705" data-name="패스 1705" d="M177.958,190.761c.018,3.21-19.35,5.921-43.26,6.056S91.39,194.46,91.372,191.25s19.35-5.921,43.26-6.056,43.308,2.358,43.326,5.568" transform="translate(-84.25 -182.01)" fill="#eff5fa"/>
                  <path id="패스_1706" data-name="패스 1706" d="M177.6,190.795c.018,3.195-19.258,5.893-43.055,6.028s-43.1-2.347-43.12-5.542,19.259-5.894,43.055-6.028,43.1,2.347,43.121,5.542" transform="translate(-84.278 -182.042)" fill="#eef5fa"/>
                  <path id="패스_1707" data-name="패스 1707" d="M177.246,190.829c.018,3.18-19.167,5.865-42.85,6s-42.9-2.335-42.915-5.515,19.167-5.866,42.85-6,42.9,2.335,42.915,5.515" transform="translate(-84.307 -182.074)" fill="#eef5fa"/>
                  <path id="패스_1708" data-name="패스 1708" d="M176.891,190.862c.018,3.164-19.075,5.837-42.645,5.97s-42.692-2.324-42.71-5.489,19.075-5.837,42.645-5.97,42.692,2.324,42.71,5.489" transform="translate(-84.336 -182.105)" fill="#edf4f9"/>
                  <path id="패스_1709" data-name="패스 1709" d="M176.536,190.895c.018,3.149-18.983,5.809-42.44,5.941s-42.487-2.313-42.5-5.462,18.983-5.809,42.44-5.942,42.487,2.313,42.5,5.463" transform="translate(-84.365 -182.136)" fill="#edf4f9"/>
                  <path id="패스_1710" data-name="패스 1710" d="M176.179,190.929c.018,3.134-18.891,5.781-42.235,5.913s-42.281-2.3-42.3-5.436,18.891-5.781,42.235-5.913,42.281,2.3,42.3,5.436" transform="translate(-84.393 -182.168)" fill="#ecf3f9"/>
                  <path id="패스_1711" data-name="패스 1711" d="M175.824,190.963c.018,3.119-18.8,5.753-42.03,5.884s-42.076-2.291-42.094-5.41,18.8-5.753,42.03-5.884,42.076,2.291,42.094,5.409" transform="translate(-84.422 -182.199)" fill="#ebf3f9"/>
                  <path id="패스_1712" data-name="패스 1712" d="M175.468,191c.018,3.1-18.708,5.725-41.825,5.855s-41.871-2.28-41.889-5.383,18.708-5.725,41.825-5.855,41.871,2.28,41.889,5.383" transform="translate(-84.45 -182.23)" fill="#ebf3f9"/>
                  <path id="패스_1713" data-name="패스 1713" d="M175.113,191.03c.018,3.088-18.617,5.7-41.62,5.827S91.827,194.588,91.81,191.5s18.616-5.7,41.62-5.827,41.666,2.269,41.683,5.357" transform="translate(-84.479 -182.262)" fill="#eaf2f8"/>
                  <path id="패스_1714" data-name="패스 1714" d="M174.758,191.063c.017,3.073-18.525,5.669-41.415,5.8s-41.46-2.258-41.477-5.33,18.524-5.669,41.415-5.8,41.461,2.257,41.478,5.33" transform="translate(-84.508 -182.293)" fill="#eaf2f8"/>
                  <path id="패스_1715" data-name="패스 1715" d="M174.4,191.1c.017,3.058-18.433,5.641-41.21,5.769s-41.255-2.246-41.273-5.3,18.433-5.641,41.21-5.77,41.255,2.246,41.273,5.3" transform="translate(-84.537 -182.324)" fill="#e9f2f8"/>
                  <path id="패스_1716" data-name="패스 1716" d="M174.046,191.13c.017,3.043-18.341,5.613-41,5.741s-41.05-2.235-41.067-5.278,18.341-5.613,41-5.741,41.05,2.235,41.067,5.278" transform="translate(-84.565 -182.356)" fill="#e8f1f8"/>
                  <path id="패스_1717" data-name="패스 1717" d="M173.69,191.163c.017,3.028-18.25,5.585-40.8,5.712s-40.845-2.224-40.862-5.251,18.25-5.585,40.8-5.712,40.845,2.224,40.862,5.252" transform="translate(-84.594 -182.387)" fill="#e8f1f7"/>
                  <path id="패스_1718" data-name="패스 1718" d="M173.335,191.2c.017,3.012-18.158,5.557-40.6,5.683s-40.639-2.213-40.656-5.225,18.158-5.557,40.6-5.683,40.639,2.213,40.656,5.225" transform="translate(-84.623 -182.419)" fill="#e7f0f7"/>
                  <path id="패스_1719" data-name="패스 1719" d="M172.978,191.231c.017,3-18.066,5.529-40.39,5.655s-40.434-2.2-40.451-5.2,18.067-5.529,40.39-5.654,40.434,2.2,40.451,5.2" transform="translate(-84.651 -182.451)" fill="#e6f0f7"/>
                  <path id="패스_1720" data-name="패스 1720" d="M172.623,191.264c.017,2.982-17.974,5.5-40.185,5.626s-40.229-2.19-40.246-5.172,17.974-5.5,40.185-5.626,40.229,2.19,40.246,5.172" transform="translate(-84.68 -182.482)" fill="#e6eff7"/>
                  <path id="패스_1721" data-name="패스 1721" d="M172.268,191.3c.017,2.967-17.883,5.473-39.98,5.6s-40.024-2.179-40.04-5.146,17.883-5.473,39.98-5.6,40.024,2.179,40.04,5.146" transform="translate(-84.709 -182.513)" fill="#e5eff7"/>
                  <path id="패스_1722" data-name="패스 1722" d="M171.912,191.331c.017,2.951-17.791,5.445-39.775,5.568S92.319,194.731,92.3,191.78s17.791-5.445,39.774-5.569,39.819,2.168,39.835,5.119" transform="translate(-84.737 -182.545)" fill="#e4eff6"/>
                  <path id="패스_1723" data-name="패스 1723" d="M171.557,191.364c.017,2.936-17.7,5.417-39.57,5.54s-39.613-2.157-39.63-5.093,17.7-5.417,39.57-5.54,39.613,2.157,39.63,5.093" transform="translate(-84.766 -182.576)" fill="#e4eef6"/>
                  <path id="패스_1724" data-name="패스 1724" d="M171.2,191.4c.017,2.921-17.608,5.388-39.365,5.511s-39.408-2.146-39.425-5.067,17.608-5.388,39.365-5.511,39.408,2.146,39.425,5.067" transform="translate(-84.795 -182.608)" fill="#e3eef6"/>
                  <path id="패스_1725" data-name="패스 1725" d="M170.845,191.432c.016,2.906-17.516,5.36-39.16,5.483s-39.2-2.135-39.219-5.04,17.516-5.36,39.16-5.482,39.2,2.134,39.219,5.04" transform="translate(-84.824 -182.639)" fill="#e2edf6"/>
                  <path id="패스_1726" data-name="패스 1726" d="M170.49,191.465c.016,2.891-17.424,5.332-38.955,5.454s-39-2.123-39.013-5.014,17.424-5.332,38.954-5.454,39,2.123,39.014,5.014" transform="translate(-84.853 -182.67)" fill="#e1edf6"/>
                  <path id="패스_1727" data-name="패스 1727" d="M170.134,191.5c.016,2.875-17.333,5.3-38.749,5.425s-38.792-2.112-38.808-4.988,17.333-5.3,38.75-5.425,38.792,2.112,38.808,4.987" transform="translate(-84.881 -182.702)" fill="#e1ecf5"/>
                  <path id="패스_1728" data-name="패스 1728" d="M169.779,191.532c.016,2.86-17.241,5.276-38.545,5.4s-38.587-2.1-38.6-4.961,17.241-5.276,38.545-5.4,38.587,2.1,38.6,4.961" transform="translate(-84.91 -182.733)" fill="#e0ecf5"/>
                  <path id="패스_1729" data-name="패스 1729" d="M169.422,191.565c.016,2.845-17.149,5.248-38.34,5.368S92.7,194.843,92.685,192s17.149-5.248,38.34-5.368,38.382,2.09,38.4,4.934" transform="translate(-84.938 -182.765)" fill="#dfecf5"/>
                  <path id="패스_1730" data-name="패스 1730" d="M169.067,191.6c.016,2.83-17.057,5.22-38.135,5.339s-38.176-2.079-38.192-4.908,17.057-5.22,38.135-5.339,38.176,2.079,38.192,4.908" transform="translate(-84.967 -182.796)" fill="#dfebf5"/>
                  <path id="패스_1731" data-name="패스 1731" d="M168.712,191.633c.016,2.814-16.966,5.192-37.93,5.31s-37.971-2.067-37.987-4.882,16.966-5.192,37.93-5.31,37.971,2.067,37.987,4.882" transform="translate(-84.996 -182.828)" fill="#deebf4"/>
                  <path id="패스_1732" data-name="패스 1732" d="M168.355,191.665c.016,2.8-16.874,5.164-37.724,5.281s-37.766-2.056-37.782-4.855,16.874-5.164,37.725-5.281,37.766,2.056,37.782,4.856" transform="translate(-85.024 -182.859)" fill="#ddeaf4"/>
                  <path id="패스_1733" data-name="패스 1733" d="M168,191.7c.016,2.784-16.783,5.136-37.52,5.253S92.92,194.908,92.9,192.124s16.782-5.136,37.52-5.253S167.984,188.916,168,191.7" transform="translate(-85.053 -182.891)" fill="#dceaf4"/>
                  <path id="패스_1734" data-name="패스 1734" d="M167.644,191.733c.016,2.769-16.691,5.107-37.315,5.224s-37.355-2.034-37.371-4.8,16.69-5.108,37.314-5.224,37.356,2.034,37.371,4.8" transform="translate(-85.082 -182.922)" fill="#dce9f4"/>
                  <path id="패스_1735" data-name="패스 1735" d="M167.289,191.766c.016,2.754-16.6,5.079-37.109,5.2s-37.151-2.023-37.166-4.777,16.6-5.079,37.109-5.195,37.15,2.022,37.166,4.776" transform="translate(-85.111 -182.953)" fill="#dbe9f3"/>
                  <path id="패스_1736" data-name="패스 1736" d="M166.933,191.8c.016,2.738-16.507,5.051-36.9,5.166s-36.945-2.012-36.96-4.75,16.507-5.051,36.9-5.166,36.945,2.012,36.96,4.75" transform="translate(-85.139 -182.985)" fill="#dae8f3"/>
                  <path id="패스_1737" data-name="패스 1737" d="M166.578,191.833c.015,2.723-16.415,5.023-36.7,5.138s-36.74-2-36.755-4.723,16.415-5.024,36.7-5.138,36.74,2,36.755,4.723" transform="translate(-85.168 -183.016)" fill="#d9e8f3"/>
                  <path id="패스_1738" data-name="패스 1738" d="M166.222,191.867c.015,2.708-16.324,5-36.495,5.109s-36.534-1.99-36.55-4.7,16.324-5,36.495-5.109,36.535,1.989,36.55,4.7" transform="translate(-85.197 -183.048)" fill="#d8e7f3"/>
                  <path id="패스_1739" data-name="패스 1739" d="M165.866,191.9c.015,2.693-16.232,4.967-36.289,5.08S93.247,195,93.232,192.311s16.232-4.967,36.29-5.08,36.329,1.978,36.344,4.671" transform="translate(-85.225 -183.079)" fill="#d8e7f2"/>
                  <path id="패스_1740" data-name="패스 1740" d="M165.511,191.934c.015,2.678-16.14,4.939-36.084,5.052s-36.124-1.967-36.139-4.644,16.14-4.939,36.084-5.052,36.124,1.967,36.139,4.644" transform="translate(-85.255 -183.11)" fill="#d7e6f2"/>
                  <path id="패스_1741" data-name="패스 1741" d="M165.155,191.968c.015,2.662-16.049,4.911-35.88,5.023s-35.918-1.955-35.934-4.618,16.049-4.911,35.88-5.023,35.918,1.955,35.934,4.618" transform="translate(-85.283 -183.142)" fill="#d6e6f2"/>
                  <path id="패스_1742" data-name="패스 1742" d="M164.8,192c.015,2.647-15.957,4.883-35.674,4.994S93.412,195.051,93.4,192.4s15.957-4.883,35.674-4.994S164.785,189.354,164.8,192" transform="translate(-85.312 -183.173)" fill="#d5e5f2"/>
                  <path id="패스_1743" data-name="패스 1743" d="M164.444,192.034c.015,2.632-15.865,4.855-35.469,4.966s-35.509-1.934-35.523-4.566,15.865-4.855,35.469-4.965,35.509,1.933,35.523,4.565" transform="translate(-85.341 -183.205)" fill="#d4e5f1"/>
                  <path id="패스_1744" data-name="패스 1744" d="M164.088,192.068c.015,2.617-15.774,4.827-35.264,4.937s-35.3-1.922-35.318-4.538,15.774-4.827,35.264-4.937,35.3,1.922,35.318,4.539" transform="translate(-85.369 -183.236)" fill="#d4e4f1"/>
                  <path id="패스_1745" data-name="패스 1745" d="M163.733,192.1c.015,2.6-15.682,4.8-35.059,4.908s-35.1-1.911-35.112-4.512,15.682-4.8,35.059-4.908,35.1,1.911,35.112,4.512" transform="translate(-85.398 -183.268)" fill="#d3e4f1"/>
                  <path id="패스_1746" data-name="패스 1746" d="M163.376,192.134c.015,2.586-15.59,4.771-34.854,4.88s-34.892-1.9-34.907-4.486,15.59-4.771,34.854-4.88,34.892,1.9,34.907,4.486" transform="translate(-85.426 -183.299)" fill="#d2e3f0"/>
                  <path id="패스_1747" data-name="패스 1747" d="M163.022,192.169c.015,2.571-15.5,4.743-34.649,4.851s-34.687-1.888-34.7-4.459,15.5-4.743,34.649-4.851,34.687,1.888,34.7,4.46" transform="translate(-85.456 -183.331)" fill="#d1e3f0"/>
                  <path id="패스_1748" data-name="패스 1748" d="M162.666,192.2c.014,2.556-15.407,4.715-34.444,4.822s-34.482-1.877-34.5-4.433,15.407-4.715,34.444-4.822,34.482,1.877,34.5,4.433" transform="translate(-85.485 -183.362)" fill="#d0e2f0"/>
                  <path id="패스_1749" data-name="패스 1749" d="M162.31,192.235c.014,2.541-15.315,4.687-34.239,4.793s-34.277-1.866-34.291-4.407,15.315-4.687,34.239-4.793,34.277,1.866,34.291,4.407" transform="translate(-85.513 -183.393)" fill="#cfe2f0"/>
                  <path id="패스_1750" data-name="패스 1750" d="M161.955,192.269c.014,2.525-15.223,4.659-34.034,4.765s-34.071-1.855-34.086-4.381,15.224-4.659,34.034-4.765,34.071,1.855,34.086,4.381" transform="translate(-85.542 -183.425)" fill="#cee1ef"/>
                  <path id="패스_1751" data-name="패스 1751" d="M161.6,192.3c.014,2.51-15.132,4.631-33.829,4.736s-33.866-1.844-33.88-4.354,15.132-4.63,33.829-4.736,33.866,1.844,33.88,4.354" transform="translate(-85.57 -183.456)" fill="#cee1ef"/>
                  <path id="패스_1752" data-name="패스 1752" d="M161.243,192.335c.014,2.5-15.04,4.6-33.624,4.707s-33.661-1.833-33.675-4.327,15.04-4.6,33.624-4.708,33.661,1.833,33.675,4.328" transform="translate(-85.599 -183.487)" fill="#cde0ef"/>
                  <path id="패스_1753" data-name="패스 1753" d="M160.888,192.37c.014,2.48-14.948,4.575-33.419,4.679s-33.456-1.821-33.47-4.3,14.948-4.575,33.419-4.679,33.456,1.821,33.47,4.3" transform="translate(-85.628 -183.519)" fill="#cce0ef"/>
                  <path id="패스_1754" data-name="패스 1754" d="M160.532,192.4c.014,2.465-14.857,4.546-33.214,4.65s-33.25-1.81-33.264-4.275,14.856-4.546,33.214-4.65,33.251,1.81,33.265,4.275" transform="translate(-85.657 -183.55)" fill="#cbdfee"/>
                  <path id="패스_1755" data-name="패스 1755" d="M160.177,192.437c.014,2.449-14.765,4.518-33.009,4.621s-33.045-1.8-33.059-4.248,14.765-4.518,33.009-4.621,33.045,1.8,33.059,4.248" transform="translate(-85.685 -183.582)" fill="#cadfee"/>
                  <path id="패스_1756" data-name="패스 1756" d="M159.821,192.47c.014,2.434-14.673,4.49-32.8,4.593s-32.84-1.788-32.854-4.222,14.673-4.49,32.8-4.593,32.84,1.788,32.854,4.222" transform="translate(-85.714 -183.613)" fill="#c9deee"/>
                  <path id="패스_1757" data-name="패스 1757" d="M159.465,192.5c.014,2.419-14.581,4.462-32.6,4.564s-32.635-1.777-32.648-4.2,14.581-4.462,32.6-4.564,32.635,1.777,32.648,4.2" transform="translate(-85.743 -183.645)" fill="#c8deed"/>
                  <path id="패스_1758" data-name="패스 1758" d="M159.11,192.537c.013,2.4-14.49,4.434-32.394,4.535s-32.429-1.766-32.443-4.169,14.49-4.434,32.394-4.535,32.429,1.766,32.443,4.169" transform="translate(-85.771 -183.676)" fill="#c7dded"/>
                  <path id="패스_1759" data-name="패스 1759" d="M158.754,192.571c.013,2.389-14.4,4.406-32.189,4.507s-32.224-1.755-32.238-4.143,14.4-4.406,32.189-4.506,32.224,1.754,32.238,4.143" transform="translate(-85.8 -183.708)" fill="#c6dced"/>
                  <path id="패스_1760" data-name="패스 1760" d="M158.4,192.6c.013,2.373-14.307,4.378-31.984,4.478s-32.019-1.743-32.033-4.116,14.306-4.378,31.984-4.478,32.019,1.743,32.032,4.117" transform="translate(-85.829 -183.739)" fill="#c6dced"/>
                  <path id="패스_1761" data-name="패스 1761" d="M158.042,192.638c.013,2.358-14.215,4.35-31.779,4.449S94.449,195.355,94.436,193s14.215-4.35,31.779-4.449,31.814,1.732,31.827,4.09" transform="translate(-85.857 -183.771)" fill="#c5dbec"/>
                  <path id="패스_1762" data-name="패스 1762" d="M157.687,192.671c.013,2.343-14.123,4.322-31.574,4.42s-31.608-1.721-31.621-4.064,14.122-4.322,31.574-4.421,31.608,1.721,31.621,4.064" transform="translate(-85.886 -183.802)" fill="#c4dbec"/>
                  <path id="패스_1763" data-name="패스 1763" d="M157.331,192.7c.013,2.328-14.031,4.294-31.369,4.392s-31.4-1.71-31.416-4.037,14.032-4.294,31.369-4.391,31.4,1.71,31.417,4.037" transform="translate(-85.915 -183.833)" fill="#c3daec"/>
                  <path id="패스_1764" data-name="패스 1764" d="M156.976,192.738c.013,2.312-13.939,4.266-31.164,4.363s-31.2-1.7-31.211-4.011,13.939-4.266,31.164-4.363,31.2,1.7,31.211,4.011" transform="translate(-85.944 -183.865)" fill="#c2daeb"/>
                  <path id="패스_1765" data-name="패스 1765" d="M156.62,192.771c.013,2.3-13.848,4.237-30.959,4.334s-30.993-1.688-31.006-3.985,13.848-4.237,30.959-4.334,30.993,1.687,31.006,3.985" transform="translate(-85.972 -183.896)" fill="#c1d9eb"/>
                  <path id="패스_1766" data-name="패스 1766" d="M156.264,192.8c.013,2.282-13.756,4.21-30.754,4.305s-30.788-1.676-30.8-3.958,13.756-4.209,30.754-4.305,30.788,1.676,30.8,3.958" transform="translate(-86.001 -183.927)" fill="#c0d8eb"/>
                  <path id="패스_1767" data-name="패스 1767" d="M155.909,192.839c.013,2.267-13.664,4.181-30.549,4.277s-30.582-1.665-30.6-3.932,13.665-4.182,30.549-4.277,30.582,1.665,30.6,3.932" transform="translate(-86.03 -183.959)" fill="#bfd8ea"/>
                  <path id="패스_1768" data-name="패스 1768" d="M155.553,192.872c.013,2.252-13.572,4.153-30.343,4.248s-30.377-1.654-30.39-3.905,13.572-4.154,30.344-4.248,30.377,1.654,30.39,3.906" transform="translate(-86.058 -183.99)" fill="#bed7ea"/>
                  <path id="패스_1769" data-name="패스 1769" d="M155.2,192.9c.012,2.236-13.481,4.125-30.139,4.219s-30.172-1.643-30.184-3.879,13.481-4.126,30.139-4.219,30.171,1.643,30.184,3.879" transform="translate(-86.087 -184.022)" fill="#bdd7ea"/>
                  <path id="패스_1770" data-name="패스 1770" d="M154.843,192.939c.012,2.221-13.389,4.1-29.934,4.191S94.942,195.5,94.93,193.277s13.389-4.1,29.934-4.191,29.966,1.632,29.979,3.853" transform="translate(-86.116 -184.053)" fill="#bcd6e9"/>
                  <path id="패스_1771" data-name="패스 1771" d="M154.486,192.972c.012,2.206-13.3,4.069-29.729,4.162S95,195.514,94.984,193.308s13.3-4.069,29.729-4.162,29.761,1.62,29.773,3.826" transform="translate(-86.144 -184.085)" fill="#bbd5e9"/>
                  <path id="패스_1772" data-name="패스 1772" d="M154.131,193.005c.012,2.191-13.206,4.041-29.523,4.133s-29.556-1.609-29.569-3.8,13.206-4.041,29.523-4.133,29.556,1.609,29.569,3.8" transform="translate(-86.173 -184.116)" fill="#bad5e9"/>
                  <path id="패스_1773" data-name="패스 1773" d="M153.775,193.04c.012,2.176-13.114,4.013-29.318,4.1s-29.351-1.6-29.363-3.773,13.114-4.013,29.318-4.1,29.351,1.6,29.363,3.773" transform="translate(-86.202 -184.148)" fill="#b9d4e9"/>
                  <path id="패스_1774" data-name="패스 1774" d="M153.419,193.072c.012,2.16-13.022,3.985-29.114,4.076S95.16,195.561,95.148,193.4s13.022-3.985,29.114-4.076,29.145,1.587,29.158,3.747" transform="translate(-86.23 -184.179)" fill="#b8d4e8"/>
                  <path id="패스_1775" data-name="패스 1775" d="M153.064,193.107c.012,2.145-12.931,3.957-28.909,4.047s-28.94-1.576-28.952-3.721,12.931-3.957,28.908-4.047,28.94,1.576,28.952,3.721" transform="translate(-86.259 -184.211)" fill="#b7d3e8"/>
                  <path id="패스_1776" data-name="패스 1776" d="M152.708,193.14c.012,2.13-12.839,3.929-28.7,4.018s-28.735-1.564-28.747-3.694,12.839-3.929,28.7-4.019,28.735,1.565,28.747,3.695" transform="translate(-86.288 -184.242)" fill="#b6d2e8"/>
                  <path id="패스_1777" data-name="패스 1777" d="M152.353,193.173c.012,2.115-12.747,3.9-28.5,3.99s-28.53-1.553-28.542-3.668,12.747-3.9,28.5-3.99,28.53,1.553,28.542,3.668" transform="translate(-86.317 -184.273)" fill="#b5d2e7"/>
                  <path id="패스_1778" data-name="패스 1778" d="M152,193.207c.012,2.1-12.655,3.873-28.293,3.961s-28.324-1.542-28.336-3.642,12.656-3.873,28.293-3.961,28.324,1.542,28.336,3.642" transform="translate(-86.345 -184.305)" fill="#b4d1e7"/>
                  <path id="패스_1779" data-name="패스 1779" d="M151.641,193.24c.012,2.084-12.564,3.845-28.089,3.932s-28.119-1.531-28.131-3.615,12.564-3.845,28.089-3.932,28.119,1.531,28.131,3.615" transform="translate(-86.374 -184.336)" fill="#b3d1e7"/>
                  <path id="패스_1780" data-name="패스 1780" d="M151.286,193.273c.011,2.069-12.473,3.817-27.884,3.9s-27.914-1.52-27.926-3.589,12.472-3.817,27.883-3.9,27.914,1.52,27.926,3.589" transform="translate(-86.403 -184.367)" fill="#b2d0e6"/>
                  <path id="패스_1781" data-name="패스 1781" d="M150.93,193.308c.011,2.054-12.381,3.789-27.678,3.875s-27.709-1.509-27.721-3.562,12.381-3.789,27.679-3.875,27.709,1.509,27.72,3.562" transform="translate(-86.431 -184.399)" fill="#b1cfe6"/>
                  <path id="패스_1782" data-name="패스 1782" d="M150.575,193.341c.011,2.039-12.289,3.761-27.473,3.846s-27.5-1.5-27.515-3.536,12.289-3.761,27.473-3.846,27.5,1.5,27.515,3.536" transform="translate(-86.461 -184.43)" fill="#b0cfe6"/>
                  <path id="패스_1783" data-name="패스 1783" d="M150.219,193.374c.011,2.023-12.2,3.733-27.268,3.818s-27.3-1.486-27.309-3.51,12.2-3.733,27.268-3.818,27.3,1.486,27.31,3.51" transform="translate(-86.489 -184.462)" fill="#afcee5"/>
                  <path id="패스_1784" data-name="패스 1784" d="M149.864,193.408c.011,2.008-12.105,3.7-27.063,3.789s-27.093-1.475-27.1-3.483,12.105-3.7,27.063-3.789,27.093,1.475,27.1,3.483" transform="translate(-86.518 -184.493)" fill="#aecde5"/>
                  <path id="패스_1785" data-name="패스 1785" d="M149.507,193.441c.011,1.993-12.013,3.676-26.858,3.76s-26.888-1.464-26.9-3.457,12.013-3.676,26.858-3.76,26.888,1.464,26.9,3.457" transform="translate(-86.546 -184.525)" fill="#adcde5"/>
                  <path id="패스_1786" data-name="패스 1786" d="M149.152,193.474c.011,1.978-11.922,3.648-26.653,3.732s-26.682-1.453-26.694-3.431,11.922-3.648,26.653-3.732,26.683,1.453,26.694,3.431" transform="translate(-86.575 -184.556)" fill="#accce4"/>
                  <path id="패스_1787" data-name="패스 1787" d="M148.8,193.508c.011,1.963-11.83,3.62-26.448,3.7s-26.477-1.441-26.488-3.4,11.83-3.62,26.448-3.7,26.477,1.441,26.488,3.4" transform="translate(-86.604 -184.588)" fill="#abcce4"/>
                  <path id="패스_1788" data-name="패스 1788" d="M148.441,193.541c.011,1.947-11.739,3.592-26.243,3.674s-26.272-1.431-26.283-3.378,11.738-3.592,26.243-3.674,26.272,1.431,26.283,3.378" transform="translate(-86.633 -184.619)" fill="#aacbe4"/>
                  <path id="패스_1789" data-name="패스 1789" d="M148.086,193.575c.011,1.932-11.647,3.564-26.038,3.646s-26.067-1.42-26.078-3.352,11.646-3.564,26.038-3.645,26.067,1.419,26.078,3.351" transform="translate(-86.662 -184.65)" fill="#a9cae3"/>
                  <path id="패스_1790" data-name="패스 1790" d="M147.729,193.609c.011,1.917-11.555,3.536-25.833,3.617s-25.861-1.408-25.872-3.325,11.555-3.536,25.833-3.617,25.861,1.408,25.872,3.325" transform="translate(-86.69 -184.682)" fill="#a8cae3"/>
                  <path id="패스_1791" data-name="패스 1791" d="M147.374,193.642c.011,1.9-11.463,3.508-25.628,3.588s-25.656-1.4-25.667-3.3,11.463-3.508,25.628-3.588,25.656,1.4,25.667,3.3" transform="translate(-86.719 -184.713)" fill="#a7c9e3"/>
                  <path id="패스_1792" data-name="패스 1792" d="M147.019,193.676c.01,1.886-11.372,3.48-25.423,3.559s-25.451-1.385-25.461-3.272,11.372-3.48,25.423-3.56,25.451,1.386,25.462,3.272" transform="translate(-86.748 -184.745)" fill="#a6c8e2"/>
                  <path id="패스_1793" data-name="패스 1793" d="M146.662,193.709c.01,1.871-11.28,3.452-25.218,3.531s-25.246-1.374-25.256-3.246,11.28-3.452,25.218-3.531,25.246,1.374,25.256,3.246" transform="translate(-86.776 -184.776)" fill="#a4c8e2"/>
                  <path id="패스_1794" data-name="패스 1794" d="M146.307,193.742c.01,1.856-11.188,3.424-25.013,3.5s-25.041-1.364-25.051-3.22,11.188-3.424,25.013-3.5,25.041,1.364,25.051,3.22" transform="translate(-86.805 -184.807)" fill="#a3c7e2"/>
                  <path id="패스_1795" data-name="패스 1795" d="M145.951,193.777c.01,1.841-11.1,3.4-24.808,3.473S96.307,195.9,96.3,194.057s11.1-3.4,24.808-3.473,24.835,1.352,24.846,3.193" transform="translate(-86.833 -184.839)" fill="#a2c6e1"/>
                  <path id="패스_1796" data-name="패스 1796" d="M145.6,193.81c.01,1.826-11,3.367-24.6,3.444s-24.63-1.341-24.64-3.167,11-3.367,24.6-3.444,24.63,1.341,24.64,3.167" transform="translate(-86.863 -184.87)" fill="#a1c6e1"/>
                  <path id="패스_1797" data-name="패스 1797" d="M145.241,193.843c.01,1.81-10.913,3.34-24.4,3.415s-24.424-1.33-24.434-3.14,10.913-3.339,24.4-3.415,24.425,1.33,24.435,3.14" transform="translate(-86.891 -184.902)" fill="#a0c5e0"/>
                  <path id="패스_1798" data-name="패스 1798" d="M144.884,193.877c.01,1.8-10.822,3.311-24.193,3.387s-24.22-1.319-24.23-3.114,10.822-3.312,24.193-3.387,24.22,1.319,24.23,3.114" transform="translate(-86.92 -184.933)" fill="#9fc4e0"/>
                  <path id="패스_1799" data-name="패스 1799" d="M144.529,193.91c.01,1.78-10.73,3.284-23.988,3.358s-24.014-1.307-24.024-3.087,10.73-3.284,23.988-3.358,24.014,1.307,24.024,3.087" transform="translate(-86.949 -184.965)" fill="#9ec4e0"/>
                  <path id="패스_1800" data-name="패스 1800" d="M144.173,193.943c.01,1.765-10.638,3.255-23.783,3.329s-23.809-1.3-23.819-3.061,10.638-3.256,23.783-3.33,23.809,1.3,23.819,3.061" transform="translate(-86.977 -184.996)" fill="#9dc3df"/>
                  <path id="패스_1801" data-name="패스 1801" d="M143.818,193.977c.01,1.75-10.546,3.227-23.578,3.3s-23.6-1.285-23.614-3.035,10.546-3.227,23.578-3.3,23.6,1.285,23.613,3.035" transform="translate(-87.006 -185.028)" fill="#9cc2df"/>
                  <path id="패스_1802" data-name="패스 1802" d="M143.462,194.01c.01,1.734-10.455,3.2-23.373,3.272s-23.4-1.274-23.408-3.008,10.455-3.2,23.373-3.272,23.4,1.274,23.408,3.008" transform="translate(-87.035 -185.059)" fill="#9ac2df"/>
                  <path id="패스_1803" data-name="패스 1803" d="M143.107,194.044c.01,1.719-10.363,3.171-23.168,3.243s-23.193-1.263-23.2-2.982,10.363-3.171,23.167-3.243,23.194,1.263,23.2,2.982" transform="translate(-87.063 -185.09)" fill="#99c1de"/>
                  <path id="패스_1804" data-name="패스 1804" d="M142.751,194.078c.01,1.7-10.271,3.143-22.963,3.215s-22.988-1.252-23-2.956,10.271-3.143,22.963-3.215,22.988,1.252,23,2.956" transform="translate(-87.092 -185.122)" fill="#98c0de"/>
                  <path id="패스_1805" data-name="패스 1805" d="M142.395,194.111c.01,1.689-10.179,3.115-22.758,3.186s-22.783-1.241-22.792-2.93,10.179-3.115,22.758-3.186,22.783,1.24,22.792,2.929" transform="translate(-87.121 -185.153)" fill="#97bfde"/>
                  <path id="패스_1806" data-name="패스 1806" d="M142.04,194.144c.01,1.674-10.088,3.087-22.553,3.157S96.91,196.072,96.9,194.4s10.088-3.087,22.553-3.157,22.577,1.229,22.587,2.9" transform="translate(-87.15 -185.185)" fill="#96bfdd"/>
                  <path id="패스_1807" data-name="패스 1807" d="M141.683,194.178c.01,1.658-10,3.059-22.348,3.129s-22.372-1.218-22.382-2.876,10-3.059,22.348-3.129,22.372,1.218,22.382,2.876" transform="translate(-87.178 -185.216)" fill="#95bedd"/>
                  <path id="패스_1808" data-name="패스 1808" d="M141.328,194.212c.009,1.643-9.9,3.031-22.143,3.1s-22.167-1.207-22.176-2.85,9.9-3.031,22.143-3.1,22.167,1.207,22.176,2.85" transform="translate(-87.207 -185.248)" fill="#94bddc"/>
                  <path id="패스_1809" data-name="패스 1809" d="M140.973,194.246c.009,1.628-9.813,3-21.938,3.071s-21.962-1.2-21.971-2.824,9.812-3,21.938-3.071,21.962,1.2,21.971,2.824" transform="translate(-87.236 -185.279)" fill="#92bddc"/>
                  <path id="패스_1810" data-name="패스 1810" d="M140.617,194.279c.009,1.613-9.721,2.975-21.733,3.043s-21.756-1.185-21.765-2.8,9.721-2.975,21.733-3.042,21.756,1.184,21.765,2.8" transform="translate(-87.264 -185.311)" fill="#91bcdc"/>
                  <path id="패스_1811" data-name="패스 1811" d="M140.262,194.312c.009,1.6-9.629,2.947-21.528,3.014s-21.551-1.173-21.56-2.771,9.629-2.947,21.528-3.014,21.551,1.173,21.56,2.771" transform="translate(-87.293 -185.342)" fill="#90bbdb"/>
                  <path id="패스_1812" data-name="패스 1812" d="M139.905,194.346c.009,1.582-9.537,2.919-21.323,2.985s-21.346-1.162-21.355-2.745,9.537-2.919,21.323-2.985,21.346,1.162,21.355,2.744" transform="translate(-87.322 -185.374)" fill="#8fbadb"/>
                  <path id="패스_1813" data-name="패스 1813" d="M139.55,194.379c.009,1.567-9.446,2.891-21.117,2.956s-21.141-1.151-21.15-2.718,9.446-2.891,21.117-2.956,21.141,1.151,21.15,2.718" transform="translate(-87.35 -185.405)" fill="#8ebadb"/>
                  <path id="패스_1814" data-name="패스 1814" d="M139.195,194.413c.009,1.552-9.354,2.863-20.912,2.928s-20.935-1.14-20.944-2.691,9.354-2.863,20.913-2.928,20.936,1.14,20.944,2.691" transform="translate(-87.379 -185.436)" fill="#8db9da"/>
                  <path id="패스_1815" data-name="패스 1815" d="M138.839,194.446c.009,1.537-9.262,2.834-20.708,2.9s-20.73-1.129-20.739-2.665,9.263-2.834,20.708-2.9,20.73,1.129,20.739,2.665" transform="translate(-87.408 -185.468)" fill="#8bb8da"/>
                  <path id="패스_1816" data-name="패스 1816" d="M138.484,194.479c.009,1.521-9.17,2.806-20.5,2.87s-20.525-1.117-20.533-2.639,9.17-2.806,20.5-2.871,20.525,1.118,20.534,2.639" transform="translate(-87.437 -185.499)" fill="#8ab8d9"/>
                  <path id="패스_1817" data-name="패스 1817" d="M138.128,194.513c.009,1.506-9.079,2.778-20.3,2.842s-20.32-1.106-20.328-2.612,9.079-2.778,20.3-2.842,20.32,1.106,20.328,2.612" transform="translate(-87.465 -185.53)" fill="#89b7d9"/>
                  <path id="패스_1818" data-name="패스 1818" d="M137.772,194.547c.009,1.491-8.987,2.75-20.092,2.813s-20.114-1.1-20.123-2.586,8.987-2.75,20.092-2.813,20.114,1.095,20.123,2.586" transform="translate(-87.494 -185.562)" fill="#88b6d9"/>
                  <path id="패스_1819" data-name="패스 1819" d="M137.417,194.58c.008,1.476-8.9,2.722-19.888,2.784S97.62,196.28,97.612,194.8s8.9-2.722,19.887-2.784,19.909,1.084,19.918,2.56" transform="translate(-87.523 -185.593)" fill="#87b5d8"/>
                  <path id="패스_1820" data-name="패스 1820" d="M137.061,194.613c.008,1.461-8.8,2.694-19.683,2.756s-19.7-1.073-19.712-2.534,8.8-2.694,19.683-2.755,19.7,1.073,19.712,2.533" transform="translate(-87.551 -185.625)" fill="#85b5d8"/>
                  <path id="패스_1821" data-name="패스 1821" d="M136.705,194.647c.008,1.445-8.712,2.666-19.477,2.727s-19.5-1.062-19.507-2.507,8.712-2.666,19.478-2.727,19.5,1.062,19.507,2.507" transform="translate(-87.58 -185.656)" fill="#84b4d8"/>
                  <path id="패스_1822" data-name="패스 1822" d="M136.349,194.681c.008,1.43-8.62,2.638-19.272,2.7s-19.294-1.05-19.3-2.48,8.621-2.638,19.272-2.7,19.294,1.05,19.3,2.48" transform="translate(-87.609 -185.688)" fill="#83b3d7"/>
                  <path id="패스_1823" data-name="패스 1823" d="M135.994,194.714c.008,1.415-8.529,2.61-19.067,2.669s-19.088-1.039-19.1-2.454,8.529-2.61,19.067-2.67,19.088,1.039,19.1,2.454" transform="translate(-87.638 -185.719)" fill="#82b2d7"/>
                  <path id="패스_1824" data-name="패스 1824" d="M135.638,194.748c.008,1.4-8.437,2.582-18.862,2.641s-18.883-1.028-18.891-2.428,8.437-2.582,18.862-2.641,18.883,1.028,18.891,2.428" transform="translate(-87.666 -185.751)" fill="#81b2d6"/>
                  <path id="패스_1825" data-name="패스 1825" d="M135.283,194.781c.008,1.384-8.345,2.554-18.657,2.612s-18.678-1.017-18.686-2.4,8.345-2.554,18.657-2.612,18.678,1.017,18.686,2.4" transform="translate(-87.695 -185.782)" fill="#7fb1d6"/>
                  <path id="패스_1826" data-name="패스 1826" d="M134.927,194.814c.008,1.369-8.254,2.526-18.452,2.583S98,196.392,98,195.023s8.253-2.525,18.452-2.583,18.473,1.006,18.48,2.375" transform="translate(-87.724 -185.813)" fill="#7eb0d6"/>
                  <path id="패스_1827" data-name="패스 1827" d="M134.571,194.848c.008,1.354-8.162,2.5-18.247,2.554s-18.267-.995-18.275-2.349,8.162-2.5,18.247-2.554,18.267.995,18.275,2.349" transform="translate(-87.752 -185.845)" fill="#7dafd5"/>
                  <path id="패스_1828" data-name="패스 1828" d="M134.216,194.882c.008,1.339-8.07,2.47-18.042,2.526s-18.062-.984-18.069-2.322,8.07-2.469,18.042-2.525,18.062.983,18.069,2.322" transform="translate(-87.781 -185.876)" fill="#7cafd5"/>
                  <path id="패스_1829" data-name="패스 1829" d="M133.86,194.915c.008,1.324-7.979,2.442-17.837,2.5s-17.857-.972-17.865-2.3,7.979-2.442,17.837-2.5,17.856.972,17.864,2.3" transform="translate(-87.809 -185.908)" fill="#7aaed4"/>
                  <path id="패스_1830" data-name="패스 1830" d="M133.5,194.949c.008,1.308-7.887,2.414-17.632,2.468s-17.652-.961-17.659-2.269,7.887-2.414,17.632-2.468,17.651.961,17.659,2.269" transform="translate(-87.839 -185.939)" fill="#79add4"/>
                  <path id="패스_1831" data-name="패스 1831" d="M133.149,194.982c.007,1.293-7.8,2.386-17.427,2.44s-17.446-.95-17.453-2.243,7.8-2.386,17.427-2.44,17.446.95,17.453,2.243" transform="translate(-87.868 -185.97)" fill="#78acd4"/>
                  <path id="패스_1832" data-name="패스 1832" d="M132.793,195.016c.007,1.278-7.7,2.357-17.222,2.411s-17.241-.939-17.248-2.217,7.7-2.357,17.222-2.411,17.241.938,17.248,2.216" transform="translate(-87.896 -186.002)" fill="#77acd3"/>
                  <path id="패스_1833" data-name="패스 1833" d="M132.438,195.049c.007,1.263-7.612,2.329-17.017,2.382s-17.036-.928-17.043-2.19,7.612-2.329,17.017-2.382,17.036.928,17.043,2.19" transform="translate(-87.925 -186.033)" fill="#75abd3"/>
                  <path id="패스_1834" data-name="패스 1834" d="M132.082,195.082c.007,1.248-7.52,2.3-16.812,2.354s-16.831-.917-16.838-2.164,7.52-2.3,16.812-2.353,16.831.916,16.838,2.164" transform="translate(-87.953 -186.065)" fill="#74aad2"/>
                  <path id="패스_1835" data-name="패스 1835" d="M131.726,195.116c.007,1.232-7.428,2.273-16.607,2.325s-16.625-.905-16.632-2.137,7.429-2.273,16.607-2.325,16.625.905,16.632,2.138" transform="translate(-87.982 -186.096)" fill="#73a9d2"/>
                  <path id="패스_1836" data-name="패스 1836" d="M131.371,195.15c.007,1.217-7.337,2.245-16.4,2.3s-16.42-.894-16.427-2.111,7.337-2.245,16.4-2.3,16.42.894,16.427,2.111" transform="translate(-88.011 -186.128)" fill="#72a8d2"/>
                  <path id="패스_1837" data-name="패스 1837" d="M131.015,195.183c.007,1.2-7.245,2.217-16.2,2.268S98.6,196.568,98.6,195.366s7.245-2.217,16.2-2.268,16.215.883,16.222,2.085" transform="translate(-88.04 -186.159)" fill="#70a8d1"/>
                  <path id="패스_1838" data-name="패스 1838" d="M130.66,195.217c.007,1.187-7.153,2.189-15.992,2.239s-16.009-.871-16.016-2.058,7.153-2.189,15.992-2.239,16.009.871,16.016,2.058" transform="translate(-88.069 -186.191)" fill="#6fa7d1"/>
                  <path id="패스_1839" data-name="패스 1839" d="M130.3,195.25c.007,1.171-7.061,2.161-15.787,2.21s-15.8-.861-15.811-2.032,7.061-2.161,15.787-2.21,15.8.861,15.811,2.032" transform="translate(-88.097 -186.222)" fill="#6ea6d0"/>
                  <path id="패스_1840" data-name="패스 1840" d="M129.948,195.283c.007,1.156-6.97,2.133-15.582,2.181s-15.6-.849-15.605-2.005,6.97-2.133,15.582-2.181,15.6.849,15.605,2.005" transform="translate(-88.126 -186.253)" fill="#6ca5d0"/>
                  <path id="패스_1841" data-name="패스 1841" d="M129.592,195.317c.007,1.141-6.878,2.1-15.377,2.153s-15.394-.838-15.4-1.979,6.878-2.1,15.378-2.153,15.393.838,15.4,1.979" transform="translate(-88.154 -186.285)" fill="#6ba5cf"/>
                  <path id="패스_1842" data-name="패스 1842" d="M129.237,195.351c.006,1.126-6.786,2.077-15.172,2.124s-15.188-.827-15.2-1.953,6.787-2.077,15.172-2.124,15.189.827,15.2,1.953" transform="translate(-88.183 -186.316)" fill="#6aa4cf"/>
                  <path id="패스_1843" data-name="패스 1843" d="M128.882,195.383c.006,1.111-6.694,2.049-14.967,2.1s-14.983-.816-14.99-1.926,6.695-2.049,14.967-2.1,14.983.816,14.99,1.926" transform="translate(-88.212 -186.347)" fill="#68a3cf"/>
                  <path id="패스_1844" data-name="패스 1844" d="M128.526,195.418c.006,1.1-6.6,2.021-14.762,2.067s-14.778-.8-14.784-1.9,6.6-2.021,14.761-2.066,14.778.8,14.784,1.9" transform="translate(-88.241 -186.379)" fill="#67a2ce"/>
                  <path id="패스_1845" data-name="패스 1845" d="M128.17,195.451c.006,1.08-6.511,1.993-14.557,2.038s-14.573-.794-14.579-1.874,6.511-1.992,14.557-2.038,14.573.794,14.579,1.874" transform="translate(-88.269 -186.41)" fill="#66a1ce"/>
                  <path id="패스_1846" data-name="패스 1846" d="M127.815,195.485c.006,1.065-6.42,1.964-14.352,2.009s-14.367-.782-14.373-1.847,6.419-1.964,14.352-2.009,14.367.782,14.374,1.847" transform="translate(-88.298 -186.442)" fill="#65a1cd"/>
                  <path id="패스_1847" data-name="패스 1847" d="M127.459,195.518c.006,1.05-6.328,1.936-14.147,1.981s-14.162-.771-14.168-1.821,6.328-1.936,14.147-1.981,14.162.771,14.168,1.821" transform="translate(-88.327 -186.473)" fill="#63a0cd"/>
                  <path id="패스_1848" data-name="패스 1848" d="M127.1,195.551c.006,1.035-6.236,1.908-13.942,1.952s-13.957-.76-13.963-1.794,6.236-1.908,13.942-1.952,13.957.76,13.963,1.794" transform="translate(-88.356 -186.505)" fill="#629fcc"/>
                  <path id="패스_1849" data-name="패스 1849" d="M126.747,195.585c.006,1.019-6.144,1.88-13.736,1.923s-13.752-.749-13.758-1.768,6.144-1.88,13.737-1.923,13.752.749,13.757,1.768" transform="translate(-88.384 -186.536)" fill="#619ecc"/>
                  <path id="패스_1850" data-name="패스 1850" d="M126.393,195.619c.006,1-6.053,1.852-13.532,1.895s-13.547-.738-13.552-1.742,6.053-1.852,13.532-1.894,13.546.737,13.552,1.741" transform="translate(-88.413 -186.568)" fill="#5f9dcc"/>
                  <path id="패스_1851" data-name="패스 1851" d="M126.036,195.652c.006.989-5.961,1.824-13.327,1.866s-13.341-.726-13.347-1.715,5.961-1.824,13.327-1.866,13.341.726,13.347,1.715" transform="translate(-88.442 -186.599)" fill="#5e9ccb"/>
                  <path id="패스_1852" data-name="패스 1852" d="M125.681,195.686c.006.974-5.869,1.8-13.122,1.837s-13.136-.716-13.141-1.689,5.869-1.8,13.121-1.837,13.136.715,13.142,1.689" transform="translate(-88.47 -186.631)" fill="#5d9ccb"/>
                  <path id="패스_1853" data-name="패스 1853" d="M125.326,195.719c.005.958-5.777,1.768-12.917,1.809s-12.931-.7-12.936-1.663,5.777-1.768,12.916-1.809,12.931.7,12.936,1.663" transform="translate(-88.499 -186.662)" fill="#5b9bca"/>
                  <path id="패스_1854" data-name="패스 1854" d="M124.969,195.752c.005.943-5.686,1.74-12.711,1.78s-12.726-.693-12.731-1.636,5.686-1.74,12.711-1.78,12.726.693,12.731,1.636" transform="translate(-88.528 -186.693)" fill="#5a9aca"/>
                  <path id="패스_1855" data-name="패스 1855" d="M124.614,195.786c.005.928-5.594,1.712-12.507,1.751s-12.52-.682-12.526-1.61,5.594-1.712,12.507-1.751,12.52.682,12.526,1.61" transform="translate(-88.556 -186.725)" fill="#5899c9"/>
                  <path id="패스_1856" data-name="패스 1856" d="M124.258,195.82c.005.913-5.5,1.684-12.3,1.722s-12.315-.67-12.32-1.583,5.5-1.684,12.3-1.722,12.315.67,12.32,1.583" transform="translate(-88.585 -186.756)" fill="#5798c9"/>
                  <path id="패스_1857" data-name="패스 1857" d="M123.9,195.852c.005.9-5.411,1.656-12.1,1.693s-12.11-.659-12.115-1.557,5.411-1.655,12.1-1.693,12.11.659,12.115,1.557" transform="translate(-88.614 -186.787)" fill="#5697c9"/>
                  <path id="패스_1858" data-name="패스 1858" d="M123.547,195.887c0,.882-5.32,1.628-11.891,1.665s-11.9-.648-11.91-1.531,5.32-1.627,11.891-1.664,11.9.648,11.91,1.53" transform="translate(-88.642 -186.819)" fill="#5497c8"/>
                  <path id="패스_1859" data-name="패스 1859" d="M123.191,195.92c0,.867-5.227,1.6-11.686,1.636s-11.7-.637-11.7-1.5,5.227-1.6,11.686-1.636,11.7.637,11.7,1.5" transform="translate(-88.671 -186.85)" fill="#5396c8"/>
                  <path id="패스_1860" data-name="패스 1860" d="M122.836,195.953c0,.852-5.136,1.572-11.482,1.607s-11.494-.626-11.5-1.478,5.136-1.572,11.481-1.607,11.494.626,11.5,1.478" transform="translate(-88.7 -186.881)" fill="#5295c7"/>
                  <path id="패스_1861" data-name="패스 1861" d="M122.48,195.987c0,.837-5.044,1.544-11.277,1.579s-11.288-.615-11.293-1.451,5.044-1.544,11.277-1.579,11.288.615,11.293,1.451" transform="translate(-88.728 -186.913)" fill="#5094c7"/>
                  <path id="패스_1862" data-name="패스 1862" d="M122.125,196.02c0,.822-4.952,1.516-11.071,1.55s-11.084-.6-11.088-1.425,4.953-1.516,11.071-1.55,11.084.6,11.088,1.425" transform="translate(-88.757 -186.944)" fill="#4f93c6"/>
                  <path id="패스_1863" data-name="패스 1863" d="M121.768,196.053c0,.806-4.86,1.488-10.866,1.521s-10.878-.592-10.883-1.4,4.861-1.487,10.866-1.521,10.878.592,10.883,1.4" transform="translate(-88.786 -186.975)" fill="#4e92c6"/>
                  <path id="패스_1864" data-name="패스 1864" d="M121.413,196.088c0,.791-4.769,1.46-10.661,1.492s-10.673-.581-10.678-1.372,4.769-1.459,10.661-1.492,10.673.581,10.678,1.372" transform="translate(-88.815 -187.008)" fill="#4c92c5"/>
                  <path id="패스_1865" data-name="패스 1865" d="M121.058,196.121c0,.776-4.677,1.432-10.456,1.464s-10.467-.57-10.472-1.346,4.677-1.431,10.456-1.464,10.468.57,10.472,1.346" transform="translate(-88.844 -187.039)" fill="#4b91c5"/>
                  <path id="패스_1866" data-name="패스 1866" d="M120.7,196.155c0,.761-4.585,1.4-10.251,1.435s-10.263-.559-10.267-1.32,4.585-1.4,10.251-1.435,10.263.559,10.267,1.319" transform="translate(-88.872 -187.071)" fill="#4990c5"/>
                  <path id="패스_1867" data-name="패스 1867" d="M120.347,196.188c0,.745-4.494,1.375-10.046,1.406s-10.057-.547-10.061-1.293,4.494-1.375,10.046-1.407,10.057.548,10.061,1.293" transform="translate(-88.901 -187.101)" fill="#488fc4"/>
                  <path id="패스_1868" data-name="패스 1868" d="M119.99,196.221c0,.73-4.4,1.347-9.841,1.378s-9.852-.536-9.856-1.267,4.4-1.347,9.841-1.378,9.852.536,9.856,1.267" transform="translate(-88.929 -187.133)" fill="#478ec4"/>
                  <path id="패스_1869" data-name="패스 1869" d="M119.635,196.255c0,.715-4.31,1.319-9.636,1.349s-9.647-.525-9.651-1.24,4.31-1.319,9.636-1.349,9.647.525,9.651,1.24" transform="translate(-88.958 -187.165)" fill="#458dc3"/>
                  <path id="패스_1870" data-name="패스 1870" d="M119.28,196.289c0,.7-4.218,1.291-9.431,1.32s-9.441-.514-9.446-1.214,4.219-1.291,9.431-1.32,9.441.514,9.445,1.214" transform="translate(-88.987 -187.196)" fill="#448cc3"/>
                  <path id="패스_1871" data-name="패스 1871" d="M118.924,196.321c0,.685-4.127,1.263-9.226,1.292s-9.236-.5-9.24-1.188,4.127-1.263,9.226-1.292,9.236.5,9.24,1.188" transform="translate(-89.016 -187.227)" fill="#428cc2"/>
                  <path id="패스_1872" data-name="패스 1872" d="M118.569,196.356c0,.669-4.035,1.235-9.021,1.263s-9.031-.492-9.035-1.161,4.035-1.235,9.021-1.263,9.031.492,9.035,1.161" transform="translate(-89.045 -187.259)" fill="#418bc2"/>
                  <path id="패스_1873" data-name="패스 1873" d="M118.212,196.389c0,.654-3.944,1.207-8.816,1.234s-8.825-.481-8.829-1.135,3.943-1.207,8.816-1.234,8.826.481,8.83,1.135" transform="translate(-89.073 -187.29)" fill="#3f8ac1"/>
                  <path id="패스_1874" data-name="패스 1874" d="M117.857,196.422c0,.639-3.852,1.179-8.611,1.206s-8.62-.469-8.624-1.109,3.852-1.179,8.611-1.205,8.62.469,8.624,1.108" transform="translate(-89.102 -187.321)" fill="#3e89c1"/>
                  <path id="패스_1875" data-name="패스 1875" d="M117.5,196.456c0,.624-3.76,1.151-8.406,1.177s-8.415-.458-8.419-1.082,3.76-1.151,8.406-1.177,8.415.458,8.419,1.082" transform="translate(-89.131 -187.353)" fill="#3d88c0"/>
                  <path id="패스_1876" data-name="패스 1876" d="M117.146,196.489c0,.609-3.668,1.122-8.2,1.148s-8.21-.447-8.213-1.055,3.668-1.122,8.2-1.148,8.21.447,8.213,1.055" transform="translate(-89.159 -187.384)" fill="#3b87c0"/>
                  <path id="패스_1877" data-name="패스 1877" d="M116.79,196.522c0,.593-3.577,1.094-8,1.12s-8-.436-8.008-1.029,3.577-1.094,8-1.12,8,.436,8.008,1.029" transform="translate(-89.188 -187.415)" fill="#3a86c0"/>
                  <path id="패스_1878" data-name="패스 1878" d="M116.434,196.557c0,.578-3.485,1.066-7.791,1.091s-7.8-.425-7.8-1,3.485-1.066,7.791-1.091,7.8.425,7.8,1" transform="translate(-89.217 -187.448)" fill="#3885bf"/>
                  <path id="패스_1879" data-name="패스 1879" d="M116.079,196.59c0,.563-3.393,1.038-7.586,1.062s-7.594-.414-7.6-.977,3.393-1.038,7.586-1.062,7.594.414,7.6.977" transform="translate(-89.246 -187.478)" fill="#3784bf"/>
                  <path id="패스_1880" data-name="패스 1880" d="M115.723,196.623c0,.548-3.3,1.01-7.381,1.033s-7.389-.4-7.392-.95,3.3-1.01,7.381-1.033,7.389.4,7.392.95" transform="translate(-89.274 -187.51)" fill="#3584be"/>
                  <path id="패스_1881" data-name="패스 1881" d="M115.368,196.657c0,.532-3.21.982-7.176,1s-7.184-.391-7.187-.924,3.21-.982,7.176-1,7.184.391,7.187.924" transform="translate(-89.303 -187.541)" fill="#3483be"/>
                  <path id="패스_1882" data-name="패스 1882" d="M115.012,196.69c0,.517-3.118.954-6.971.976s-6.979-.38-6.982-.9,3.118-.954,6.971-.976,6.979.38,6.982.9" transform="translate(-89.332 -187.573)" fill="#3282bd"/>
                  <path id="패스_1883" data-name="패스 1883" d="M114.656,196.724c0,.5-3.026.926-6.766.947s-6.773-.368-6.776-.87,3.027-.926,6.766-.948,6.773.369,6.776.871" transform="translate(-89.36 -187.604)" fill="#3181bd"/>
                  <path id="패스_1884" data-name="패스 1884" d="M114.3,196.757c0,.487-2.935.9-6.561.919s-6.568-.357-6.571-.844,2.935-.9,6.561-.919,6.568.358,6.571.844" transform="translate(-89.389 -187.636)" fill="#2f80bc"/>
                  <path id="패스_1885" data-name="패스 1885" d="M113.944,196.79c0,.472-2.843.87-6.356.89s-6.363-.347-6.365-.818,2.843-.87,6.356-.89,6.363.347,6.365.818" transform="translate(-89.417 -187.667)" fill="#2e7fbc"/>
                  <path id="패스_1886" data-name="패스 1886" d="M113.59,196.825c0,.456-2.751.842-6.151.861s-6.158-.335-6.16-.792,2.751-.842,6.151-.861,6.158.335,6.16.792" transform="translate(-89.447 -187.699)" fill="#2c7ebb"/>
                  <path id="패스_1887" data-name="패스 1887" d="M113.234,196.858c0,.441-2.66.814-5.946.832s-5.952-.324-5.955-.765,2.66-.814,5.946-.832,5.952.324,5.955.765" transform="translate(-89.475 -187.73)" fill="#2b7dbb"/>
                  <path id="패스_1888" data-name="패스 1888" d="M112.878,196.891c0,.426-2.568.786-5.741.8s-5.747-.313-5.749-.739,2.568-.785,5.741-.8,5.747.313,5.749.739" transform="translate(-89.504 -187.761)" fill="#2a7cba"/>
                  <path id="패스_1889" data-name="패스 1889" d="M112.523,196.925c0,.411-2.476.758-5.536.775s-5.542-.3-5.544-.712,2.476-.758,5.536-.775,5.542.3,5.544.713" transform="translate(-89.533 -187.793)" fill="#287bba"/>
                  <path id="패스_1890" data-name="패스 1890" d="M112.166,196.958c0,.4-2.384.73-5.33.746s-5.337-.29-5.339-.686,2.384-.73,5.331-.746,5.336.29,5.339.686" transform="translate(-89.561 -187.824)" fill="#277bb9"/>
                  <path id="패스_1891" data-name="패스 1891" d="M111.811,196.991c0,.38-2.293.7-5.126.717s-5.131-.279-5.134-.659,2.293-.7,5.126-.718,5.131.28,5.134.66" transform="translate(-89.59 -187.855)" fill="#257ab9"/>
                  <path id="패스_1892" data-name="패스 1892" d="M111.456,197.026c0,.365-2.2.674-4.921.689s-4.926-.268-4.928-.633,2.2-.674,4.92-.689,4.926.268,4.928.633" transform="translate(-89.619 -187.887)" fill="#2479b8"/>
                  <path id="패스_1893" data-name="패스 1893" d="M111.1,197.059c0,.35-2.109.646-4.716.66s-4.72-.257-4.722-.607,2.109-.646,4.715-.66,4.721.257,4.723.607" transform="translate(-89.648 -187.919)" fill="#2278b8"/>
                  <path id="패스_1894" data-name="패스 1894" d="M110.745,197.092c0,.335-2.018.618-4.51.631s-4.516-.246-4.517-.581,2.018-.617,4.51-.631,4.516.246,4.517.581" transform="translate(-89.676 -187.95)" fill="#2177b7"/>
                  <path id="패스_1895" data-name="패스 1895" d="M110.389,197.126c0,.319-1.926.59-4.305.6s-4.31-.235-4.312-.554,1.926-.589,4.305-.6,4.31.235,4.312.554" transform="translate(-89.705 -187.981)" fill="#1f76b7"/>
                  <path id="패스_1896" data-name="패스 1896" d="M110.033,197.159c0,.3-1.834.561-4.1.574s-4.1-.224-4.107-.528,1.834-.561,4.1-.574,4.1.223,4.107.528" transform="translate(-89.734 -188.013)" fill="#1e75b6"/>
                  <path id="패스_1897" data-name="패스 1897" d="M109.678,197.192c0,.289-1.742.533-3.9.545s-3.9-.212-3.9-.5,1.742-.533,3.9-.545,3.9.212,3.9.5" transform="translate(-89.762 -188.044)" fill="#1c74b6"/>
                  <path id="패스_1898" data-name="패스 1898" d="M109.322,197.226c0,.274-1.651.5-3.69.517s-3.695-.2-3.7-.475,1.651-.505,3.691-.517,3.695.2,3.7.475" transform="translate(-89.791 -188.076)" fill="#1a73b6"/>
                  <path id="패스_1899" data-name="패스 1899" d="M108.967,197.259c0,.259-1.559.477-3.485.488s-3.489-.19-3.491-.448,1.559-.477,3.485-.488,3.489.19,3.491.449" transform="translate(-89.82 -188.107)" fill="#1972b5"/>
                  <path id="패스_1900" data-name="패스 1900" d="M108.611,197.294c0,.243-1.467.449-3.28.459s-3.284-.179-3.285-.422,1.467-.449,3.28-.459,3.284.179,3.285.422" transform="translate(-89.848 -188.139)" fill="#1771b5"/>
                  <path id="패스_1901" data-name="패스 1901" d="M108.255,197.327c0,.228-1.375.421-3.076.431s-3.078-.168-3.08-.4,1.375-.421,3.075-.431,3.079.168,3.08.4" transform="translate(-89.877 -188.17)" fill="#1670b4"/>
                  <path id="패스_1902" data-name="패스 1902" d="M107.9,197.36c0,.213-1.285.393-2.871.4s-2.873-.156-2.874-.369,1.284-.393,2.87-.4,2.874.156,2.875.369" transform="translate(-89.906 -188.201)" fill="#146fb4"/>
                  <path id="패스_1903" data-name="패스 1903" d="M107.544,197.394c0,.2-1.192.365-2.665.373s-2.669-.145-2.67-.343,1.192-.365,2.665-.373,2.669.145,2.67.343" transform="translate(-89.934 -188.233)" fill="#136eb3"/>
                  <path id="패스_1904" data-name="패스 1904" d="M107.188,197.427c0,.183-1.1.337-2.46.344s-2.463-.134-2.464-.317,1.1-.337,2.46-.344,2.463.134,2.464.317" transform="translate(-89.963 -188.264)" fill="#116eb3"/>
                  <path id="패스_1905" data-name="패스 1905" d="M106.832,197.46c0,.167-1.009.309-2.255.316s-2.258-.123-2.259-.29,1.009-.309,2.255-.316,2.258.123,2.259.29" transform="translate(-89.992 -188.295)" fill="#106db2"/>
                  <path id="패스_1906" data-name="패스 1906" d="M106.477,197.495c0,.152-.917.281-2.05.287s-2.053-.112-2.054-.264.918-.281,2.051-.287,2.052.112,2.053.264" transform="translate(-90.021 -188.327)" fill="#0e6cb2"/>
                  <path id="패스_1907" data-name="패스 1907" d="M106.122,197.528c0,.137-.825.252-1.846.258s-1.848-.1-1.848-.237.825-.252,1.846-.258,1.847.1,1.848.237" transform="translate(-90.049 -188.359)" fill="#0d6bb1"/>
                  <path id="패스_1908" data-name="패스 1908" d="M105.766,197.561c0,.122-.734.224-1.64.23s-1.642-.089-1.643-.211.734-.224,1.64-.23,1.642.089,1.643.211" transform="translate(-90.078 -188.39)" fill="#0b6ab1"/>
                  <path id="패스_1909" data-name="패스 1909" d="M105.411,197.595c0,.107-.642.2-1.435.2s-1.437-.078-1.437-.185.642-.2,1.435-.2,1.437.078,1.437.185" transform="translate(-90.107 -188.421)" fill="#0969b0"/>
                  <path id="패스_1910" data-name="패스 1910" d="M105.054,197.628c0,.091-.55.168-1.23.172s-1.232-.067-1.232-.158.551-.168,1.23-.172,1.231.067,1.232.158" transform="translate(-90.135 -188.453)" fill="#0868b0"/>
                  <path id="패스_1911" data-name="패스 1911" d="M104.7,197.662c0,.076-.458.14-1.025.144s-1.026-.056-1.027-.132.459-.14,1.025-.143,1.026.056,1.027.132" transform="translate(-90.164 -188.484)" fill="#0667af"/>
                  <path id="패스_1912" data-name="패스 1912" d="M104.343,197.7c0,.061-.367.112-.82.115s-.821-.045-.822-.106.367-.113.82-.115.821.045.822.106" transform="translate(-90.193 -188.516)" fill="#0566af"/>
                  <path id="패스_1913" data-name="패스 1913" d="M103.988,197.729c0,.046-.275.084-.615.086s-.616-.033-.616-.079.275-.084.615-.086.616.033.616.079" transform="translate(-90.222 -188.547)" fill="#0365ae"/>
                  <path id="패스_1914" data-name="패스 1914" d="M103.633,197.762c0,.03-.184.056-.41.058s-.41-.022-.41-.053.184-.056.41-.058.411.022.411.053" transform="translate(-90.251 -188.578)" fill="#0264ae"/>
                  <path id="패스_1915" data-name="패스 1915" d="M103.276,197.8c0,.015-.092.028-.2.029s-.205-.011-.205-.026.092-.028.2-.029.205.011.205.027" transform="translate(-90.279 -188.61)" fill="#0063ad"/>
                </g>
              </g>
            </g>
          </g>
        </g>
        <g id="그룹_542" data-name="그룹 542" transform="translate(0 4.636)" opacity="0.5">
          <g id="그룹_541" data-name="그룹 541">
            <g id="그룹_540" data-name="그룹 540" clip-path="url(#clip-path-5)">
              <path id="패스_1917" data-name="패스 1917" d="M.693,37.978h0c.019-.035.038-.07.058-.106s.028-.049.041-.075l.044-.077a4.716,4.716,0,0,1,2.114-2.068l.24-.105L32.382,22.818,61.574,10.089l.24-.105a2.269,2.269,0,0,1,2.278.153l.051.034.051.037,3.382,2.5-2.186.649,2.9,39.186a5.471,5.471,0,0,1-.74,3.02c-.014.027-.029.052-.043.078l-.042.074a4.719,4.719,0,0,1-2.114,2.069L7.129,83.167l.232,2.465-3.2-2.372c-.017-.012-.034-.023-.05-.036a2.833,2.833,0,0,1-1.127-2.206L.011,40.893a5.431,5.431,0,0,1,.682-2.915" transform="translate(0 -9.751)" fill="#fff"/>
              <g id="그룹_521" data-name="그룹 521" transform="translate(3.34 2.457)">
                <g id="그룹_520" data-name="그룹 520" clip-path="url(#clip-path-6)">
                  <path id="패스_1918" data-name="패스 1918" d="M67.2-47.154-4.6-15.841,2.914,85.8,74.721,54.486Z" transform="translate(-0.925 17.643)" fill="url(#linear-gradient)"/>
                </g>
              </g>
              <g id="그룹_523" data-name="그룹 523" transform="translate(3.322 15.525)">
                <g id="그룹_522" data-name="그룹 522" clip-path="url(#clip-path-7)">
                  <path id="패스_1920" data-name="패스 1920" d="M8.654,101.863l31.66-64.3L-9.2,3.717l-31.66,64.3Z" transform="translate(18.113 -22.111)" fill="url(#linear-gradient-2)"/>
                </g>
              </g>
              <g id="그룹_525" data-name="그룹 525" transform="translate(35.705 2.508)">
                <g id="그룹_524" data-name="그룹 524" clip-path="url(#clip-path-8)">
                  <path id="패스_1922" data-name="패스 1922" d="M74.293,71.482,27.333,31,61.858-30.1l46.96,40.486Z" transform="translate(-50.043 8.645)" fill="url(#linear-gradient-3)"/>
                </g>
              </g>
              <g id="그룹_527" data-name="그룹 527" transform="translate(7.361 33.416)">
                <g id="그룹_526" data-name="그룹 526" clip-path="url(#clip-path-9)">
                  <path id="패스_1924" data-name="패스 1924" d="M78.733,92.145,73.659,23.552,8.988,51.753l5.074,68.592Z" transform="translate(-12.075 -50.407)" fill="url(#linear-gradient-4)"/>
                </g>
              </g>
              <g id="그룹_529" data-name="그룹 529" transform="translate(4.016 2.509)">
                <g id="그룹_528" data-name="그룹 528" clip-path="url(#clip-path-10)">
                  <path id="패스_1926" data-name="패스 1926" d="M29.177-77.592l-52.53,61.6L17.923,53.232l52.53-61.6Z" transform="translate(8.235 33.558)" fill="url(#linear-gradient-5)"/>
                </g>
              </g>
              <path id="패스_1928" data-name="패스 1928" d="M34.222,46.066h0l.054-.118c.012-.029.026-.056.039-.084s.027-.058.041-.087a5.092,5.092,0,0,1,2.106-2.4l.25-.133,30.37-16.074L97.451,11.1l.25-.132a2.448,2.448,0,0,1,2.464-.021c.019.01.039.022.058.033s.039.022.057.035l3.842,2.409-2.3.876,6.313,41.924a5.9,5.9,0,0,1-.55,3.309c-.013.03-.027.059-.04.088s-.026.055-.039.083a5.09,5.09,0,0,1-2.106,2.4L44.828,94.161l.45,2.632L41.639,94.5c-.019-.012-.038-.022-.057-.034a3.06,3.06,0,0,1-1.393-2.283L33.726,49.258a5.857,5.857,0,0,1,.5-3.192" transform="translate(-17.664 -10.209)" fill="#fff"/>
              <g id="그룹_531" data-name="그룹 531" transform="translate(19.817 2.787)">
                <g id="그룹_530" data-name="그룹 530" clip-path="url(#clip-path-11)">
                  <path id="패스_1929" data-name="패스 1929" d="M97.407-63.112l-81.435,43.1L33.434,95.98l81.435-43.1Z" transform="translate(-28.196 25.685)" fill="url(#linear-gradient-6)"/>
                </g>
              </g>
              <g id="그룹_533" data-name="그룹 533" transform="translate(19.783 19.338)">
                <g id="그룹_532" data-name="그룹 532" clip-path="url(#clip-path-12)">
                  <path id="패스_1931" data-name="패스 1931" d="M49.882,116.691,79.893,41.97,24.212,9.794-5.8,84.515Z" transform="translate(-16.742 -29.112)" fill="url(#linear-gradient-7)"/>
                </g>
              </g>
              <g id="그룹_535" data-name="그룹 535" transform="translate(53.192 2.841)">
                <g id="그룹_534" data-name="그룹 534" clip-path="url(#clip-path-13)">
                  <path id="패스_1933" data-name="패스 1933" d="M117.032,78.614,63.09,38.791,96.938-33.339,150.88,6.483Z" transform="translate(-86.287 10.012)" fill="url(#linear-gradient-8)"/>
                </g>
              </g>
              <g id="그룹_537" data-name="그룹 537" transform="translate(27.614 38.479)">
                <g id="그룹_536" data-name="그룹 536" clip-path="url(#clip-path-14)">
                  <path id="패스_1935" data-name="패스 1935" d="M123.518,99.961,111.856,22.492,43.819,58.5l11.662,77.469Z" transform="translate(-50.6 -54.914)" fill="url(#linear-gradient-9)"/>
                </g>
              </g>
              <g id="그룹_539" data-name="그룹 539" transform="translate(20.333 2.844)">
                <g id="그룹_538" data-name="그룹 538" clip-path="url(#clip-path-15)">
                  <path id="패스_1937" data-name="패스 1937" d="M57.212-81.614,6.115-11.607,56.005,59.286,107.1-10.72Z" transform="translate(-23.54 35.333)" fill="url(#linear-gradient-10)"/>
                </g>
              </g>
            </g>
          </g>
        </g>
        <path id="패스_1939" data-name="패스 1939" d="M69.6,40.311h0c.017-.043.035-.086.053-.128s.025-.06.038-.091.026-.063.04-.094a5.426,5.426,0,0,1,2.148-2.637l.261-.151h0l31.721-18.32L135.586.568h0l.261-.151A2.61,2.61,0,0,1,138.471.3c.021.01.042.022.063.033s.042.022.063.035l4.188,2.415L140.37,3.8l8.377,44.415a6.287,6.287,0,0,1-.455,3.547c-.013.032-.027.064-.039.1s-.025.06-.039.089a5.426,5.426,0,0,1-2.149,2.638L82.8,91.131l.582,2.786-3.967-2.3c-.02-.012-.041-.022-.062-.034a3.26,3.26,0,0,1-1.573-2.377L69.2,43.731a6.25,6.25,0,0,1,.4-3.42" transform="translate(-36.255 0)" fill="#fff"/>
      </g>
    </g>
    <g id="그룹_546" data-name="그룹 546" transform="translate(37.012 2.377)">
      <g id="그룹_545" data-name="그룹 545" clip-path="url(#clip-path-16)">
        <path id="패스_1940" data-name="패스 1940" d="M132.167-83.077,43.909-32.1,67.568,93.325l88.258-50.977Z" transform="translate(-60.046 41.203)" fill="url(#linear-gradient-11)"/>
      </g>
    </g>
    <g id="그룹_548" data-name="그룹 548" transform="translate(36.972 21.27)">
      <g id="그룹_547" data-name="그룹 547" clip-path="url(#clip-path-17)">
        <path id="패스_1942" data-name="패스 1942" d="M90.312,116.359,119.758,34.4,59.659,2.575,30.213,84.535Z" transform="translate(-52.821 -22.62)" fill="#73bae5"/>
      </g>
    </g>
    <g id="그룹_550" data-name="그룹 550" transform="translate(71.725 2.434)">
      <g id="그룹_549" data-name="그룹 549" clip-path="url(#clip-path-18)">
        <path id="패스_1944" data-name="패스 1944" d="M160.133,73.844,101.539,33.849l33.643-79.184L193.776-5.34Z" transform="translate(-124.99 21.347)" fill="#8fc7ea"/>
      </g>
    </g>
    <g id="그룹_552" data-name="그룹 552" transform="translate(47.126 41.548)">
      <g id="그룹_551" data-name="그룹 551" clip-path="url(#clip-path-19)">
        <path id="패스_1946" data-name="패스 1946" d="M167.272,95.37,151.492,11.713,80.207,52.887l15.781,83.657Z" transform="translate(-89.201 -47.692)" fill="#43a9d1"/>
        <path id="패스_1967" data-name="패스 1967" d="M42.147,38.662,29.795-1.32,77.9,13.957Z" transform="translate(-2.132 0.094)" fill="#68bada"/>
      </g>
    </g>
    <g id="그룹_554" data-name="그룹 554" transform="translate(37.464 2.437)">
      <g id="그룹_553" data-name="그룹 553" clip-path="url(#clip-path-20)">
        <path id="패스_1948" data-name="패스 1948" d="M90.472-96.108,39.15-20.038,94.608,52.876,145.93-23.195Z" transform="translate(-58.001 47.979)" fill="#afe4ff"/>
      </g>
    </g>
  </g>
</svg>
