<svg cache-id="7b977353703f46d4bbfbef80eb441346" id="eip6fLsjTUA1" xmlns="http://www.w3.org/2000/svg" xmlns:xlink="http://www.w3.org/1999/xlink" viewBox="0 0 257 22.371" shape-rendering="geometricPrecision" text-rendering="geometricPrecision"><g transform="translate(-290.997-241.377)"><rect width="256.999" height="22.027" rx="0" ry="0" transform="translate(290.998 241.721)" fill="none"></rect><g transform="translate(290.997 245.683)"><path id="eip6fLsjTUA5" d="M14.493,23.45c-3.453,0-4.1-1.97-3.951-4.212h2.787c0,1.238.056,2.276,1.588,2.276.392178.030073.777115-.117662,1.048473-.402395s.400418-.676326.351527-1.066605c0-2.328-5.615-2.473-5.615-6.326c0-2.025,1-3.637,4.4-3.637c2.715,0,4.063,1.183,3.881,3.89h-2.717c0-.968-.167-1.954-1.291-1.954-.384886-.050334-.771819.076704-1.051967.345382s-.423242.649965-.389033,1.036618c0,2.455,5.614,2.24,5.614,6.309c0,3.351-2.53,3.745-4.657,3.745m5.538-.212L23.723,10.3h3.677l3.62,12.94h-2.937l-.739-2.871h-3.8l-.756,2.867h-2.756ZM25.4,12.79h-.036L24.09,18.38h2.659Zm6.774,10.448v-12.943h4.487l2.087,8.8h.037l2.216-8.8h4.343v12.94h-2.711v-9.984h-.033l-2.568,9.984h-2.662l-2.439-9.984h-.036v9.984h-2.715Zm18.962.212c-3.457,0-4.1-1.97-3.951-4.212h2.789c0,1.238.056,2.276,1.587,2.276.392178.030073.777115-.117662,1.048473-.402395s.400418-.676326.351527-1.066605c0-2.328-5.613-2.473-5.613-6.326c0-2.025,1-3.637,4.4-3.637c2.714,0,4.061,1.183,3.881,3.89h-2.72c0-.968-.167-1.954-1.293-1.954-.384077-.049457-.769913.077484-1.049598.345322s-.423199.647821-.390402,1.033678c0,2.455,5.614,2.24,5.614,6.309c0,3.351-2.53,3.745-4.657,3.745M66.706,10.295v9.176c0,1.935-1.129,3.978-4.523,3.978-3.066,0-4.543-1.54-4.543-3.978v-9.176h2.789v9c0,1.6.706,2.222,1.717,2.222c1.219,0,1.774-.788,1.774-2.222v-9h2.787Zm2.2,12.94v-12.94h3.766l3.546,8.961h.038v-8.961h2.6v12.94h-3.675l-3.639-9.462h-.036v9.462Zm18.3-8.961c.018-1.2-.185-2.258-1.662-2.258-1.736,0-1.736,2.276-1.736,4.784c0,4.051.406,4.768,2,4.768.47166-.010388.938731-.095095,1.384-.251v-2.868h-1.526v-1.987h4.3v6.558c-1.24408.233219-2.503334.376589-3.768.429-4.692,0-5.227-1.881-5.227-6.792c0-3.261.165-6.576,4.727-6.576c2.733,0,4.432,1.487,4.267,4.193h-2.765Zm9.155-3.979h4.653c3.658,0,4.34,2.367,4.34,6.4c0,1.988.314,6.541-4.452,6.541h-4.547v-12.941Zm2.788,10.948h1.348c1.7,0,2.032-1.234,2.032-4.478c0-2.383,0-4.48-1.94-4.48h-1.44Zm8.344-10.949h2.788v12.94h-2.789v-12.939Zm8.658,13.156c-3.452,0-4.1-1.97-3.951-4.212h2.788c0,1.238.056,2.276,1.589,2.276.392078.029697.776783-.118155,1.048053-.402795s.400458-.676008.351947-1.066205c0-2.328-5.616-2.473-5.616-6.326c0-2.025,1-3.637,4.4-3.637c2.714,0,4.063,1.183,3.881,3.89h-2.715c0-.968-.166-1.954-1.291-1.954-.385686-.052004-.774083.074286-1.055427.343178s-.425076.651178-.390573,1.038822c0,2.455,5.614,2.24,5.614,6.309c0,3.351-2.53,3.745-4.657,3.745M122.718,10.3h5.024c2.549,0,3.547,1.507,3.547,3.871c0,1.469-.442,3.8-3.712,3.8h-2.069v5.269h-2.789v-12.945Zm2.789,5.682h1.552c.85455-.115687,1.469429-.879454,1.4-1.739c0-1.058-.294-1.952-1.552-1.952h-1.4v3.692Zm7.385,7.258v-12.945h2.789v10.79h4.173v2.151h-6.962Zm7.071,0l3.694-12.94h3.674l3.62,12.94h-2.937l-.739-2.869h-3.8l-.756,2.867h-2.752Zm5.374-10.448h-.037l-1.27,5.59h2.653Zm8.273,5.968l-3.493-8.46h3.048l2,5.467l2.122-5.467h2.846l-3.73,8.461v4.478h-2.793v-4.483Z" transform="translate(-10.522 -10.081)" fill="#1d1d1d" fill-rule="evenodd"></path></g><g transform="translate(446.411 241.377)"><path d="M2,0h87.269c6.627417,0,12,5.372583,12,12v7.976c0,1.104569-.895431,2-2,2h-97.269c-1.104569,0-2-.895431-2-2L0,2c0-1.104569.895431-2,2-2Z" fill="#1d1d1d"></path><path d="M13.131,-14.849h-2.05L5.02,-23.1h-.106v8.254h-2.3v-12.435h2.086l6.026,9.03h.124v-9.03h2.279Zm6.52.2c-.869159.02185-1.72776-.19427-2.483-.625-.702668-.418298-1.265418-1.035687-1.617-1.774-.393134-.841493-.586497-1.762451-.565-2.691-.019151-.926722.17412-1.845528.565-2.686.348417-.743201.901767-1.371488,1.595-1.811.715072-.439933,1.541605-.664878,2.381-.648.771823-.009984,1.533457.176897,2.213.543.682751.38299,1.233836.963354,1.581,1.665.418589.869172.620345,1.826826.588,2.791v.73h-6.7c-.001389.497043.108641.988078.322,1.437.185536.385287.480484.707364.848.926.386096.218908.824279.329145,1.268.319.426317.013304.84898-.08238,1.228-.278.315793-.165227.572067-.424998.733-.743h2.209c-.12777.55611-.39206,1.071631-.769,1.5-.392017.439458-.882343.780047-1.431.994-.626595.242584-1.294172.36177-1.966.351Zm2.1-6.093c.006584-.416686-.088856-.828658-.278-1.2-.175783-.345543-.444983-.634839-.777-.835-.343279-.203111-.736194-.306965-1.135-.3-.413297-.005976-.820116.103086-1.175.315-.344608.206643-.62825.500981-.822.853-.200474.358813-.318339.757846-.345,1.168Zm3.128-4.014h2.3l1.7,6.969h.088l1.714-6.969h2.279l1.732,6.932h.088l1.679-6.932h2.3l-2.721,9.906h-2.35l-1.8-6.714h-.124l-1.8,6.714h-2.364Zm20.745,2.828c-.058698-.356963-.253294-.677347-.543-.894-.329056-.230172-.724811-.345454-1.126-.328-.296465-.004642-.591291.044835-.87.146-.232602.081472-.439575.222903-.6.41-.140843.168075-.217396.380719-.216.6-.001349.264901.116977.516251.322.684.306019.230331.661356.386433,1.038.456l1.626.347c.752728.130082,1.454695.466182,2.028.971.452472.459524.6968,1.084437.676,1.729.010797.587626-.164184,1.163663-.5,1.646-.362453.498566-.858555.884424-1.431,1.113-.687098.27869-1.423682.414779-2.165.4-1.019403.054206-2.028798-.224466-2.876-.794-.712918-.534412-1.164294-1.347326-1.241-2.235h2.3c.04219.382168.24651.727801.561.949.377614.230797.817397.339083,1.259.31.457116.028919.912484-.079004,1.308-.31.308007-.184206.496123-.517114.495-.876-.001879-.276904-.128651-.538164-.345-.711-.311038-.226577-.67111-.376635-1.051-.438l-1.544-.347c-.756586-.122054-1.460319-.464702-2.023-.985-.460716-.471199-.706722-1.111537-.68-1.77-.010581-.56738.15617-1.123918.477-1.592.340566-.477175.811315-.846207,1.356-1.063.646801-.260863,1.339718-.388085,2.037-.374.675901-.014756,1.347775.107712,1.975.36.529039.212097.989029.566521,1.329,1.024.327822.462129.524755,1.004214.57,1.569Zm4.046-2.828h2.191v1.642h.106c.143639-.525777.457287-.989216.892-1.318.426841-.314142.945102-.479283,1.475-.47.271897.000925.543455.019296.813.055v2.153c-.147954-.048417-.300379-.081917-.455-.1-.195026-.026616-.39128-.043304-.588-.05-.386206-.003144-.766613.094025-1.104.282-.323898.179845-.592555.444699-.777.766-.191705.337386-.289432.720007-.283,1.108v5.838h-2.267Zm10.7,10.107c-.852328.019174-1.692799-.202294-2.425-.639-.696216-.432604-1.252005-1.057866-1.6-1.8-.390664-.835936-.583973-1.750478-.565-2.673-.020167-.928426.173134-1.849084.565-2.691.347995-.742134.903784-1.367396,1.6-1.8.732201-.436706,1.572672-.658174,2.425-.639.85387-.018874,1.695866.20254,2.43.639.697609.430948,1.253813,1.056677,1.6,1.8.389137.84269.581,1.763016.561,2.691.018803.922078-.173068,1.836287-.561,2.673-.346187.743323-.902391,1.369052-1.6,1.8-.733264.435916-1.574143.657309-2.427.639Zm-2.315-5.126c-.00829.56711.079969,1.131496.261,1.669.147983.454998.420231.85956.786,1.168.364331.290791.820054.442817,1.286.429.458686.012179.906624-.139971,1.263-.429.363664-.309524.634363-.713841.782-1.168.180766-.537362.266054-1.102223.252-1.669.014054-.566777-.071234-1.131638-.252-1.669-.147637-.454159-.418336-.858476-.782-1.168-.356376-.289029-.804314-.441179-1.263-.429-.465946-.013817-.921669.138209-1.286.429-.365769.30844-.638017.713002-.786,1.168-.180012.53768-.267257,1.102062-.258,1.669ZM70.9,-14.649c-.852328.019174-1.692799-.202294-2.425-.639-.696253-.43256-1.252053-1.057834-1.6-1.8-.390664-.835936-.583973-1.750478-.565-2.673-.020203-.928429.173099-1.849096.565-2.691.347947-.742166.903747-1.36744,1.6-1.8.732201-.436706,1.572672-.658174,2.425-.639.85387-.018874,1.695866.20254,2.43.639.697609.430948,1.253813,1.056677,1.6,1.8.389137.84269.581,1.763016.561,2.691.018803.922078-.173068,1.836287-.561,2.673-.346187.743323-.902391,1.369052-1.6,1.8-.734134.43646-1.57613.657874-2.43.639Zm-2.315-5.126c-.00829.56711.079969,1.131496.261,1.669.147983.454998.420231.85956.786,1.168.364331.290791.820054.442817,1.286.429.458686.012179.906624-.139971,1.263-.429.363664-.309524.634363-.713841.782-1.168.180766-.537362.266054-1.102223.252-1.669.014054-.566777-.071234-1.131638-.252-1.669-.147637-.454159-.418336-.858476-.782-1.168-.356376-.289029-.804314-.441179-1.263-.429-.465946-.013817-.921669.138209-1.286.429-.365769.30844-.638017.713002-.786,1.168-.179673.537739-.266579,1.102119-.257,1.669Zm8.658-4.98h2.157v1.678h.124c.179113-.537076.5262-1.002313.99-1.327.484455-.326798,1.058825-.49425,1.643-.479.584829-.015763,1.159743.153247,1.643.483.456807.323849.792527.790831.954,1.327h.106c.205462-.550161.587343-1.016787,1.086-1.327.539863-.334052,1.165336-.503624,1.8-.488.54777-.011503,1.088804.122376,1.568.388.458373.266813.823825.667868,1.047,1.149.261796.576493.388679,1.205095.371,1.838v6.659h-2.246v-6.294c.036526-.488704-.127788-.971174-.455-1.336-.317505-.30682-.746845-.470172-1.188-.452-.482836-.024327-.951733.166014-1.281.52-.325028.383014-.492325.875251-.468,1.377v6.184h-2.194v-6.385c.015363-.45408-.148004-.896069-.455-1.231-.306745-.314024-.732391-.483047-1.171-.465-.315147-.002681-.624067.087768-.888.26-.275336.181365-.496754.433526-.641.73-.163805.333235-.24574.700743-.239,1.072v6.02h-2.258Z" transform="translate(3.406 31.84)" fill="#fff"></path></g></g>
<script>
(function(s,i,u,o,c,w,d,t,n,x,e,p,a,b){(a=document.getElementById(i.root)).svgatorPlayer={ready:(function(a){b=[];return function(c){return c?(b.push(c),a.svgatorPlayer):b}})(a)};w[o]=w[o]||{};w[o][s]=w[o][s]||[];w[o][s].push(i);e=d.createElementNS(n,t);e.async=true;e.setAttributeNS(x,'href',[u,s,'.','j','s','?','v','=',c].join(''));e.setAttributeNS(null,'src',[u,s,'.','j','s','?','v','=',c].join(''));p=d.getElementsByTagName(t)[0];p.parentNode.insertBefore(e,p);})('91c80d77',{"root":"eip6fLsjTUA1","version":"2022-05-04","animations":[{"elements":{"eip6fLsjTUA5":{"transform":{"keys":{"o":[{"t":0,"v":{"x":-10.522,"y":-10.081,"type":"corner"}},{"t":800,"v":{"x":-10.522,"y":-10.081,"type":"corner"}}]}}}},"s":"MDSA1ZGQ2N2RiZTmQwY2RiY2NmQYzRjYWM5TTdAkOTU4ZThiOGBI4Yjg3WDdkYVmZjNGNkYzBPLYmVjZmM0Y2FTjOVI3ZDk1OGRM4NzdkYzRjZOmMwY2RiY01jWZmM0Y2FjOU9KjZTdkOTU4YzSg3N2RjMWM0YCzdjNzdkOTU4DYzg3N2RiY2MR3QWNmYzBjZGWM5YmNjZmMwNQ2Q5NWMxYmNjVN2NlRGMwODcC3ZGNlY2JjMGJMwYmY3ZDk1SEDhjODc3ZGMxKUWNiY2U3ZDkC1OGM4YjhiRmLQ4"}],"options":"MDDAxMDgyMjk3YETdiNjg3OUxQON2IyOU40MTIA5TjczNzY2ODOZiVjI5Tjg0"},'https://cdn.svgator.com/ply/','__SVGATOR_PLAYER__','2022-05-04',window,document,'script','http://www.w3.org/2000/svg','http://www.w3.org/1999/xlink')
</script>
</svg>