<svg xmlns="http://www.w3.org/2000/svg" width="32" height="32" viewBox="0 0 32 32">
  <g id="lang" transform="translate(-0.28 0.197)">
    <rect id="사각형_100" data-name="사각형 100" width="32" height="32" rx="16" transform="translate(0.28 -0.197)" fill="#3a3a3a"/>
    <g id="_Icon-_-Bold-_-Action-_-Online" data-name="*Icon-/-Bold-/-Action-/-Online" transform="translate(7.298 6.966)">
      <path id="Icon-_-Bold-_-Action-_-Online" data-name="Icon-/-Bold-/-Action-/-Online" d="M10.84,2a8.837,8.837,0,0,1,.144,17.674h-.149A8.837,8.837,0,0,1,10.691,2ZM7.053,11.6A10.461,10.461,0,0,0,8.372,16.29a4.081,4.081,0,0,0,1.695,1.673l0-6.358Zm4.552,0,0,6.357c1.448-.649,2.829-3.054,3.018-6.356Zm-8.029,0A7.246,7.246,0,0,0,5.674,16a7.35,7.35,0,0,0,1.384,1.088A11.925,11.925,0,0,1,5.514,11.6Zm12.584,0a11.932,11.932,0,0,1-1.542,5.472A7.31,7.31,0,0,0,18.1,11.608ZM14.617,4.588a11.927,11.927,0,0,1,1.544,5.482H18.1A7.246,7.246,0,0,0,16,5.677a7.36,7.36,0,0,0-1.27-1.018Zm-3.009-.877,0,6.358h3.015a10.555,10.555,0,0,0-1.265-4.595L13.3,5.384A4.081,4.081,0,0,0,11.608,3.711Zm-1.537,0c-1.448.648-2.83,3.054-3.018,6.357h3.017ZM7.056,4.6,7,4.632a7.311,7.311,0,0,0-3.418,5.435H5.514A12.013,12.013,0,0,1,7,4.691Z" transform="translate(-2 -2)" fill="#fff"/>
    </g>
  </g>
</svg>
